<svg width="200" height="108" viewBox="0 0 200 108" fill="none" xmlns="http://www.w3.org/2000/svg">
<g clip-path="url(#clip0_4250_1088)">
<mask id="mask0_4250_1088" style="mask-type:luminance" maskUnits="userSpaceOnUse" x="0" y="0" width="200" height="108">
<path d="M200 0H0V108H200V0Z" fill="white"/>
</mask>
<g mask="url(#mask0_4250_1088)">
<mask id="mask1_4250_1088" style="mask-type:luminance" maskUnits="userSpaceOnUse" x="0" y="0" width="200" height="108">
<path d="M200 0H0V108H200V0Z" fill="white"/>
</mask>
<g mask="url(#mask1_4250_1088)">
<path fill-rule="evenodd" clip-rule="evenodd" d="M70 20C69.26 21.51 65.34 20.4 64.91 23.52C61.82 22.97 61.66 27.03 60 27.27C61.2 28.44 58.94 31.82 61.78 33.2C60.29 35.96 64.11 37.37 63.82 39.02C65.3 38.24 67.82 41.43 70 39.16C72.18 41.43 74.7 38.23 76.18 39.02C75.89 37.37 79.71 35.96 78.22 33.2C81.06 31.82 78.8 28.44 80 27.27C78.34 27.03 78.18 22.97 75.09 23.52C74.66 20.4 70.74 21.51 70 20Z" fill="white"/>
<path fill-rule="evenodd" clip-rule="evenodd" d="M70.0009 20.9709C69.1909 22.4309 65.8509 21.4409 65.4309 24.1809C62.6809 23.7309 62.6009 27.2109 60.9609 27.5409C62.1009 28.7709 60.1209 31.6309 62.6109 32.8809C61.3309 35.3509 64.6209 36.5109 64.4209 38.1709C65.9409 37.4709 68.0509 40.2309 70.0109 38.2609C71.9709 40.2409 74.0909 37.4609 75.6109 38.1709C75.4109 36.5109 78.6909 35.3509 77.4109 32.8809C79.9009 31.6309 77.9209 28.7609 79.0609 27.5309C77.4209 27.2109 77.3309 23.7309 74.5909 24.1809C74.1709 21.4309 70.8309 22.4209 70.0209 20.9609L70.0009 20.9709Z" fill="#C32C30"/>
<path fill-rule="evenodd" clip-rule="evenodd" d="M70.0016 22.4531C69.3316 23.5731 66.5616 22.7631 66.1716 25.1331C63.7916 24.7731 63.7016 27.6631 62.4316 27.9531C63.2916 28.9331 61.6616 31.3231 63.8016 32.4331C62.7216 34.5831 65.4416 35.5631 65.3316 36.8631C66.5316 36.3531 68.3016 38.6331 70.0116 36.9431C71.7216 38.6331 73.4916 36.3431 74.6916 36.8531C74.5716 35.5531 77.2916 34.5831 76.2216 32.4331C78.3616 31.3231 76.7316 28.9331 77.5916 27.9531C76.3216 27.6631 76.2316 24.7731 73.8616 25.1331C73.4716 22.7531 70.6916 23.5731 70.0216 22.4531H70.0016Z" fill="white"/>
<path fill-rule="evenodd" clip-rule="evenodd" d="M70.0001 24.0881C69.4701 25.0381 67.2901 24.3981 67.0101 26.1981C65.2101 25.9081 65.1601 28.1781 64.0801 28.3981C64.8201 29.1981 63.5301 31.0681 65.1601 31.8881C64.3301 33.5081 66.4801 34.2581 66.3401 35.3481C67.3401 34.8881 68.7101 36.6981 69.9901 35.4081C71.2701 36.6981 72.6601 34.8881 73.6501 35.3481C73.5201 34.2581 75.6601 33.5081 74.8301 31.8881C76.4501 31.0681 75.1601 29.1981 75.9101 28.3881C74.8401 28.1581 74.7801 25.8881 73.0001 26.1881C72.7201 24.3881 70.5301 25.0381 70.0001 24.0781V24.0881Z" fill="#C32C30"/>
<path fill-rule="evenodd" clip-rule="evenodd" d="M70 25.76C69.63 26.39 68.07 25.93 67.85 27.26C66.51 27.06 66.47 28.68 65.75 28.84C66.23 29.39 65.32 30.73 66.52 31.35C65.92 32.55 67.44 33.1 67.38 33.83C68.05 33.54 69.04 34.83 70 33.88C70.96 34.83 71.95 33.54 72.63 33.83C72.56 33.1 74.09 32.56 73.49 31.35C74.69 30.73 73.77 29.39 74.26 28.84C73.55 28.68 73.5 27.06 72.17 27.26C71.95 25.93 70.39 26.39 70.02 25.75L70 25.76Z" fill="white"/>
<path d="M70.0006 30.7669C69.7006 30.7669 69.4606 30.5169 69.4606 30.2269C69.4606 29.9369 69.7106 29.6869 70.0006 29.6869C70.2906 29.6869 70.5406 29.9369 70.5406 30.2269C70.5406 30.2969 70.5306 30.3669 70.5006 30.4369C70.4206 30.6369 70.2206 30.7769 70.0106 30.7769L70.0006 30.7669ZM70.8806 30.6869L70.7206 30.5269H70.9406L71.2606 30.6769L72.8606 30.2269L71.2606 29.7669L70.9406 29.9169H70.7206L70.8806 29.7569L71.2006 29.6369L72.0206 28.1569L70.5806 29.0069L70.4606 29.3469L70.3006 29.5069V29.2669L70.4506 28.9369L70.0006 27.2969L69.5506 28.9369L69.7006 29.2669V29.4969L69.5406 29.3369L69.4206 29.0069L67.9706 28.1669L68.8006 29.6469L69.1306 29.7669L69.2906 29.9269H69.0606L68.7406 29.7769L67.1406 30.2369L68.7406 30.6869L69.0606 30.5369H69.2806L69.1206 30.6969L68.7906 30.8269L67.9606 32.3069L69.4106 31.4669L69.5306 31.1269L69.6906 30.9669V31.1969L69.5406 31.5269L69.9906 33.1669L70.4406 31.5269L70.2906 31.1969V30.9669L70.4506 31.1269L70.5706 31.4669L72.0206 32.3069L71.1906 30.8269L70.8706 30.6969L70.8806 30.6869Z" fill="#C32C30"/>
<path d="M10 20C15.5228 20 20 15.5228 20 10C20 4.47715 15.5228 0 10 0C4.47715 0 0 4.47715 0 10C0 15.5228 4.47715 20 10 20Z" fill="#F0F0F0"/>
<path fill-rule="evenodd" clip-rule="evenodd" d="M1.4718 15.2219H18.5318C19.0318 14.4119 19.4118 13.5319 19.6518 12.6119H0.341797C0.591797 13.5319 0.971797 14.4119 1.4618 15.2219H1.4718ZM10.0018 20.0019C12.2618 20.0019 14.4618 19.2419 16.2318 17.8319H3.7818C5.5518 19.2419 7.7418 20.0119 10.0018 20.0019ZM9.5618 4.78188H18.5318C17.9218 3.78188 17.1418 2.90188 16.2218 2.17188H9.5618V4.78188ZM9.5618 10.0019H20.0018C20.0018 9.10187 19.8818 8.22187 19.6618 7.39187H9.5718V10.0019H9.5618Z" fill="#D80027"/>
<path d="M8.28094 2.18L8.60094 3.18L7.75094 2.56L6.90094 3.18L7.22094 2.18L6.37094 1.56H7.42094L7.75094 0.56L8.07094 1.56H9.12094L8.27094 2.18H8.28094ZM8.28094 5.09L8.60094 6.09L7.75094 5.47L6.90094 6.09L7.22094 5.09L6.37094 4.47H7.42094L7.74094 3.47L8.06094 4.47H9.11094L8.26094 5.09H8.28094ZM8.60094 9L7.75094 8.38L6.90094 9L7.22094 8L6.37094 7.38H7.42094L7.74094 6.38L8.06094 7.38H9.11094L8.26094 8L8.58094 9H8.60094ZM4.69094 5.09L5.01094 6.09L4.16094 5.47L3.31094 6.09L3.63094 5.09L2.78094 4.47H3.83094L4.15094 3.47L4.47094 4.47H5.52094L4.67094 5.09H4.69094ZM5.01094 9L4.16094 8.38L3.31094 9L3.63094 8L2.78094 7.38H3.83094L4.15094 6.38L4.47094 7.38H5.52094L4.67094 8L4.99094 9H5.01094ZM4.62094 1.56H5.53094L4.68094 2.18L5.00094 3.18L4.15094 2.56L3.30094 3.18L3.58094 2.32C2.83094 2.94 2.18094 3.67 1.64094 4.48H1.93094L1.39094 4.87C1.31094 5.01 1.22094 5.15 1.15094 5.3L1.41094 6.09L0.930938 5.74C0.810938 5.99 0.700938 6.25 0.600938 6.52L0.880938 7.39H1.93094L1.08094 8.01L1.40094 9.01L0.550938 8.39L0.0409375 8.76C-0.0090625 9.17 -0.0390625 9.58 -0.0390625 10.01H9.96094V0C8.06094 0 6.20094 0.54 4.59094 1.56H4.62094Z" fill="#0052B4"/>
<path d="M30 20C35.5228 20 40 15.5228 40 10C40 4.47715 35.5228 0 30 0C24.4772 0 20 4.47715 20 10C20 15.5228 24.4772 20 30 20Z" fill="#F0F0F0"/>
<path fill-rule="evenodd" clip-rule="evenodd" d="M34.4516 12.6137L37.9316 16.0938C38.7316 15.0538 39.3116 13.8737 39.6516 12.6137H34.4516ZM32.6116 19.6637C33.8716 19.3237 35.0516 18.7338 36.0916 17.9438L32.6116 14.4637V19.6637ZM27.3916 0.34375C26.1316 0.68375 24.9516 1.27375 23.9116 2.06375L27.3916 5.54375V0.34375ZM23.9116 17.9338C24.9516 18.7338 26.1316 19.3137 27.3916 19.6537V14.4537L23.9116 17.9338ZM36.0916 2.06375C35.0516 1.26375 33.8716 0.68375 32.6116 0.34375V5.54375L36.0916 2.06375ZM20.3516 12.6038C20.6916 13.8638 21.2816 15.0437 22.0716 16.0837L25.5516 12.6038H20.3516ZM39.6616 7.38375C39.3216 6.12375 38.7316 4.94375 37.9416 3.90375L34.4616 7.38375H39.6616ZM22.0716 3.90375C21.2716 4.94375 20.6916 6.12375 20.3516 7.38375H25.5516L22.0716 3.90375Z" fill="#0052B4"/>
<path fill-rule="evenodd" clip-rule="evenodd" d="M39.9203 8.70031H31.3103V0.0903125C30.4403 -0.0196875 29.5703 -0.0196875 28.7003 0.0903125V8.70031H20.0903C19.9803 9.57031 19.9803 10.4403 20.0903 11.3103H28.7003V19.9203C29.5703 20.0303 30.4403 20.0303 31.3103 19.9203V11.3103H39.9203C40.0303 10.4403 40.0303 9.57031 39.9203 8.70031Z" fill="#D80027"/>
<path fill-rule="evenodd" clip-rule="evenodd" d="M32.6118 7.39375L37.0718 2.93375C36.8618 2.72375 36.6518 2.53375 36.4318 2.34375L32.6118 6.16375V7.39375ZM27.3918 7.39375L22.9318 2.93375C22.7318 3.14375 22.5318 3.35375 22.3418 3.57375L26.1618 7.39375H27.3918ZM27.3918 12.6137L22.9318 17.0737C23.1318 17.2837 23.3518 17.4737 23.5718 17.6637L27.3918 13.8438V12.6137ZM32.6118 12.6137L37.0718 17.0737C37.2818 16.8637 37.4718 16.6538 37.6618 16.4338L33.8418 12.6137H32.6118Z" fill="#D80027"/>
<path d="M50 20C55.5228 20 60 15.5228 60 10C60 4.47715 55.5228 0 50 0C44.4772 0 40 4.47715 40 10C40 15.5228 44.4772 20 50 20Z" fill="#F0F0F0"/>
<path fill-rule="evenodd" clip-rule="evenodd" d="M60.0005 9.99719C60.0005 5.69719 57.2905 2.03719 53.4805 0.617188V19.3772C57.3905 17.9272 60.0005 14.1672 60.0005 9.99719Z" fill="#D80027"/>
<path fill-rule="evenodd" clip-rule="evenodd" d="M40 9.99719C40 14.2972 42.71 17.9572 46.52 19.3772V0.617188C42.61 2.06719 40 5.82719 40 9.99719Z" fill="#0052B4"/>
<path fill-rule="evenodd" clip-rule="evenodd" d="M60.6211 13.4794C62.0711 17.3894 65.8311 19.9994 70.0011 19.9994C74.1711 19.9994 77.9311 17.3894 79.3811 13.4794L70.0011 12.6094L60.6211 13.4794Z" fill="#FFDA44"/>
<path fill-rule="evenodd" clip-rule="evenodd" d="M70.0011 0C65.7011 0 62.0311 2.71 60.6211 6.52L70.0011 7.39L79.3811 6.52C77.9311 2.61 74.1711 0 70.0011 0Z" fill="black"/>
<path fill-rule="evenodd" clip-rule="evenodd" d="M60.62 6.52344C60.21 7.63344 60 8.81344 60 10.0034C60 11.2234 60.22 12.3934 60.62 13.4834H79.38C79.79 12.3734 80 11.1934 80 10.0034C80 8.78344 79.78 7.61344 79.38 6.52344H60.62Z" fill="#D80027"/>
<path d="M90 20C95.5228 20 100 15.5228 100 10C100 4.47715 95.5228 0 90 0C84.4772 0 80 4.47715 80 10C80 15.5228 84.4772 20 90 20Z" fill="#F0F0F0"/>
<path fill-rule="evenodd" clip-rule="evenodd" d="M100 9.99719C100 5.69719 97.2905 2.03719 93.4805 0.617188V19.3772C97.3905 17.9272 100 14.1672 100 9.99719Z" fill="#D80027"/>
<path fill-rule="evenodd" clip-rule="evenodd" d="M80 9.99719C80 14.2972 82.71 17.9572 86.52 19.3772V0.617188C82.61 2.06719 80 5.82719 80 9.99719Z" fill="#6DA544"/>
<path d="M110 20C115.523 20 120 15.5228 120 10C120 4.47715 115.523 0 110 0C104.477 0 100 4.47715 100 10C100 15.5228 104.477 20 110 20Z" fill="#F0F0F0"/>
<path fill-rule="evenodd" clip-rule="evenodd" d="M119.38 13.4834C119.79 12.3734 120 11.1934 120 10.0034C120 8.78344 119.78 7.61344 119.38 6.52344H100.62C100.21 7.63344 100 8.81344 100 10.0034C100 11.2234 100.22 12.3934 100.62 13.4834L110 14.3534L119.38 13.4834Z" fill="#0052B4"/>
<path fill-rule="evenodd" clip-rule="evenodd" d="M110.001 19.9966C114.301 19.9966 117.961 17.2866 119.381 13.4766H100.621C102.071 17.3866 105.831 19.9966 110.001 19.9966Z" fill="#D80027"/>
<path fill-rule="evenodd" clip-rule="evenodd" d="M120 9.99844C120 11.2184 120.22 12.3884 120.62 13.4784L130 14.3484L139.38 13.4784C139.79 12.3684 140 11.1884 140 9.99844C140 8.77844 139.78 7.60844 139.38 6.51844L130 5.64844L120.62 6.51844C120.21 7.62844 120 8.80844 120 9.99844Z" fill="#FFDA44"/>
<path fill-rule="evenodd" clip-rule="evenodd" d="M120.621 13.48C122.071 17.39 125.831 20 130.001 20C134.171 20 137.931 17.39 139.381 13.48H120.621ZM139.381 6.52C137.931 2.61 134.171 0 130.001 0C125.831 0 122.071 2.61 120.621 6.52H139.381Z" fill="#D80027"/>
<path d="M150 20C155.523 20 160 15.5228 160 10C160 4.47715 155.523 0 150 0C144.477 0 140 4.47715 140 10C140 15.5228 144.477 20 150 20Z" fill="#D80027"/>
<path fill-rule="evenodd" clip-rule="evenodd" d="M151.88 4.49219L151.8 5.53219L152.77 5.93219L151.75 6.18219L151.68 7.23219L151.13 6.34219L150.11 6.59219L150.79 5.79219L150.23 4.90219L151.2 5.29219L151.88 4.49219ZM154.94 7.34219L154.48 8.28219L155.23 9.01219L154.19 8.86219L153.73 9.80219L153.55 8.77219L152.51 8.62219L153.44 8.13219L153.26 7.09219L154.01 7.82219L154.94 7.33219V7.34219ZM153.17 13.1122L153.48 12.1122L152.63 11.5022L153.68 11.4822L153.99 10.4822L154.33 11.4722H155.38L154.54 12.0822L154.88 13.0722L154.02 12.4622L153.18 13.0922L153.17 13.1122ZM151.86 15.4922L151.2 14.6822L150.22 15.0622L150.79 14.1822L150.13 13.3622L151.14 13.6322L151.71 12.7522L151.76 13.8022L152.77 14.0722L151.79 14.4422L151.85 15.4922H151.86ZM145.48 6.09219L146.34 8.75219H149.13L146.87 10.4022L147.73 13.0622L145.47 11.4222L143.21 13.0622L144.08 10.4022L141.82 8.75219H144.61L145.47 6.09219H145.48Z" fill="#FFDA44"/>
<path fill-rule="evenodd" clip-rule="evenodd" d="M180 10.0191C180 15.5291 175.52 19.9991 170 19.9991C164.48 19.9991 160 15.5291 160 10.0191L170 0.0390625C175.52 0.0390625 180 4.50906 180 10.0191Z" fill="#0052B4"/>
<path fill-rule="evenodd" clip-rule="evenodd" d="M170 5.24906V0.0390625C164.48 0.0390625 160 4.50906 160 10.0191H165.22V7.08906L168.16 10.0191H169.98C169.98 10.0191 170 9.99906 170.01 9.98906V8.17906L167.07 5.24906H170.01H170ZM169.98 10.0691H170.05V9.99906L169.98 10.0691Z" fill="#F0F0F0"/>
<path fill-rule="evenodd" clip-rule="evenodd" d="M165.061 1.34375C163.491 2.23375 162.201 3.53375 161.301 5.09375V10.0238H163.911V3.94375H170.001V1.34375H165.061Z" fill="#D80027"/>
<path fill-rule="evenodd" clip-rule="evenodd" d="M170.001 8.79L166.451 5.25H165.221L170.001 10.02V8.79Z" fill="#D80027"/>
<path fill-rule="evenodd" clip-rule="evenodd" d="M175.611 10.0228L175.831 10.6828H176.531L175.961 11.0928L176.181 11.7528L175.611 11.3428L175.051 11.7528L175.271 11.0928L174.701 10.6828H175.401L175.611 10.0228ZM177.211 6.98281L177.481 7.55281L178.101 7.41281L177.821 7.98281L178.321 8.37281L177.701 8.51281V9.15281L177.201 8.75281L176.701 9.15281V8.51281L176.081 8.37281L176.581 7.98281L176.301 7.41281L176.921 7.55281L177.191 6.98281H177.211ZM174.981 4.38281L175.251 4.95281L175.871 4.81281L175.591 5.38281L176.091 5.78281L175.471 5.92281V6.55281L174.981 6.15281L174.481 6.55281V5.92281L173.861 5.78281L174.361 5.39281L174.081 4.82281L174.701 4.96281L174.971 4.39281L174.981 4.38281ZM172.431 7.85281L172.701 8.42281L173.321 8.28281L173.041 8.85281L173.541 9.25281L172.921 9.39281V10.0228L172.431 9.62281L171.931 10.0228V9.39281L171.311 9.25281L171.811 8.86281L171.531 8.29281L172.151 8.43281L172.421 7.86281L172.431 7.85281ZM174.981 13.9328L175.251 14.5028L175.871 14.3628L175.591 14.9328L176.091 15.3228L175.471 15.4628V16.1028L174.981 15.7028L174.481 16.1028V15.4628L173.861 15.3228L174.361 14.9328L174.081 14.3628L174.701 14.5028L174.971 13.9328H174.981ZM166.041 11.7628L166.591 12.9128L167.831 12.6228L167.271 13.7628L168.271 14.5528L167.031 14.8328V16.1028L166.041 15.3128L165.051 16.1028V14.8328L163.811 14.5528L164.811 13.7628L164.251 12.6228L165.491 12.9128L166.041 11.7628Z" fill="#F0F0F0"/>
<mask id="mask2_4250_1088" style="mask-type:luminance" maskUnits="userSpaceOnUse" x="0" y="20" width="20" height="20">
<path d="M10 40C15.5228 40 20 35.5228 20 30C20 24.4772 15.5228 20 10 20C4.47715 20 0 24.4772 0 30C0 35.5228 4.47715 40 10 40Z" fill="white"/>
</mask>
<g mask="url(#mask2_4250_1088)">
<path d="M20 20H0V40H20V20Z" fill="url(#paint0_linear_4250_1088)"/>
</g>
<path fill-rule="evenodd" clip-rule="evenodd" d="M9.37175 29.9869C9.37175 29.9869 10.1517 27.5869 9.70175 25.6969C9.26175 23.8069 9.05175 23.4669 9.26175 22.0469C8.93175 22.9169 8.49175 25.3669 8.94175 26.5669C9.40175 27.7669 9.37175 29.9869 9.37175 29.9869Z" fill="#F2EA37"/>
<path fill-rule="evenodd" clip-rule="evenodd" d="M8.95023 30.2619C8.95023 30.2619 9.37023 27.8319 8.64023 26.0019C7.91023 24.1719 7.65023 23.8419 7.64023 22.4219C7.44023 23.3019 7.36023 25.7619 8.00023 26.9119C8.64023 28.0719 8.95023 30.2619 8.95023 30.2619Z" fill="#F2EA37"/>
<path fill-rule="evenodd" clip-rule="evenodd" d="M8.55094 30.1769C8.55094 30.1769 8.51094 27.7369 7.44094 25.9969C6.37094 24.2569 6.04094 23.9569 5.78094 22.5469C5.75094 23.4369 6.13094 25.8669 6.98094 26.9469C7.83094 28.0269 8.56094 30.1769 8.56094 30.1769H8.55094Z" fill="#F2EA37"/>
<path fill-rule="evenodd" clip-rule="evenodd" d="M8.28055 30.2312C8.28055 30.2312 7.68055 27.8312 6.23055 26.2312C4.78055 24.6312 4.39055 24.3813 3.81055 23.0312C3.98055 23.9112 4.91055 26.2612 6.00055 27.2312C7.09055 28.2012 8.28055 30.2312 8.28055 30.2312Z" fill="#F2EA37"/>
<path fill-rule="evenodd" clip-rule="evenodd" d="M10.5116 30.0125C10.5116 30.0125 9.73156 27.6025 10.1616 25.7225C10.6016 23.8425 10.8116 23.4925 10.6016 22.0625C10.9316 22.9325 11.3916 25.3825 10.9316 26.5825C10.4816 27.7825 10.5116 30.0025 10.5116 30.0025V30.0125ZM8.08156 30.3325C8.08156 30.3325 6.97156 28.0425 5.20156 26.6525C3.43156 25.2625 2.97156 25.0625 2.10156 23.8025C2.46156 24.6525 3.90156 26.8525 5.17156 27.6625C6.44156 28.4825 8.08156 30.3325 8.08156 30.3325Z" fill="#F2EA37"/>
<path fill-rule="evenodd" clip-rule="evenodd" d="M10.9308 30.1703C10.9308 30.1703 10.5108 27.7403 11.2408 25.9003C11.9708 24.0603 12.2308 23.7403 12.2308 22.3203C12.4308 23.2003 12.5108 25.6603 11.8708 26.8103C11.2308 27.9603 10.9308 30.1603 10.9308 30.1603V30.1703Z" fill="#F2EA37"/>
<path fill-rule="evenodd" clip-rule="evenodd" d="M11.1816 30.2775C11.1816 30.2775 11.2716 27.8375 12.3716 26.1075C13.4716 24.3775 13.8016 24.0875 14.1016 22.6875C14.1116 23.5775 13.6916 25.9975 12.8116 27.0775C11.9416 28.1475 11.1816 30.2775 11.1816 30.2775Z" fill="#F2EA37"/>
<path fill-rule="evenodd" clip-rule="evenodd" d="M11.5215 30.1781C11.5215 30.1781 12.1815 27.7981 13.6715 26.2281C15.1615 24.6581 15.5515 24.4181 16.1715 23.0781C15.9715 23.9581 14.9915 26.2781 13.8815 27.2281C12.7715 28.1781 11.5215 30.1781 11.5215 30.1781Z" fill="#F2EA37"/>
<path fill-rule="evenodd" clip-rule="evenodd" d="M9.35026 30.0066C9.35026 30.0066 10.1303 32.4066 9.68026 34.2966C9.24026 36.1866 9.03026 36.5266 9.24026 37.9566C8.91026 37.0866 8.47026 34.6366 8.92026 33.4366C9.38026 32.2366 9.35026 30.0166 9.35026 30.0166V30.0066ZM11.6803 30.3066C11.6803 30.3066 12.8803 28.0566 14.7103 26.7266C16.5403 25.3966 16.9903 25.2066 17.9103 23.9766C17.5103 24.8066 16.0003 26.9566 14.6903 27.7366C13.3803 28.5166 11.6803 30.3066 11.6803 30.3066Z" fill="#F2EA37"/>
<path fill-rule="evenodd" clip-rule="evenodd" d="M8.92093 29.7422C8.92093 29.7422 9.34093 32.1722 8.61093 34.0022C7.88093 35.8322 7.61093 36.1622 7.61093 37.5822C7.41093 36.7022 7.33093 34.2422 7.97093 33.0922C8.61093 31.9322 8.92093 29.7422 8.92093 29.7422Z" fill="#F2EA37"/>
<path fill-rule="evenodd" clip-rule="evenodd" d="M8.53141 29.8203C8.53141 29.8203 8.49141 32.2603 7.42141 34.0003C6.35141 35.7403 6.02141 36.0403 5.76141 37.4503C5.73141 36.5603 6.11141 34.1303 6.96141 33.0503C7.81141 31.9703 8.54141 29.8203 8.54141 29.8203H8.53141Z" fill="#F2EA37"/>
<path fill-rule="evenodd" clip-rule="evenodd" d="M8.26102 29.7734C8.26102 29.7734 7.66102 32.1734 6.21102 33.7734C4.76102 35.3734 4.37102 35.6234 3.79102 36.9734C3.96102 36.0934 4.89102 33.7434 5.98102 32.7734C7.07102 31.8034 8.26102 29.7734 8.26102 29.7734Z" fill="#F2EA37"/>
<path fill-rule="evenodd" clip-rule="evenodd" d="M10.4913 29.9919C10.4913 29.9919 9.71125 32.4019 10.1413 34.2819C10.5813 36.1619 10.7912 36.5119 10.5712 37.9419C10.9012 37.0719 11.3612 34.6219 10.9012 33.4219C10.4512 32.2219 10.4812 30.0019 10.4812 30.0019L10.4913 29.9919ZM8.08125 29.6719C8.08125 29.6719 6.95125 31.9519 5.15125 33.3319C3.36125 34.7019 2.92125 34.9019 2.03125 36.1619C2.40125 35.3219 3.85125 33.1319 5.14125 32.3219C6.43125 31.5119 8.07125 29.6719 8.07125 29.6719H8.08125Z" fill="#F2EA37"/>
<path fill-rule="evenodd" clip-rule="evenodd" d="M10.9011 29.8281C10.9011 29.8281 10.4811 32.2581 11.2011 34.0981C11.9211 35.9281 12.2011 36.2581 12.2011 37.6781C12.4011 36.7981 12.4811 34.3381 11.8411 33.1881C11.2011 32.0381 10.9011 29.8281 10.9011 29.8281Z" fill="#F2EA37"/>
<path fill-rule="evenodd" clip-rule="evenodd" d="M11.1602 29.7188C11.1602 29.7188 11.2502 32.1588 12.3602 33.8888C13.4702 35.6188 13.7902 35.9088 14.0902 37.3088C14.0902 36.4188 13.6702 33.9988 12.8102 32.9288C11.9502 31.8588 11.1702 29.7288 11.1702 29.7288L11.1602 29.7188Z" fill="#F2EA37"/>
<path fill-rule="evenodd" clip-rule="evenodd" d="M11.4902 29.8203C11.4902 29.8203 12.1502 32.2003 13.6402 33.7703C15.1302 35.3403 15.5202 35.5803 16.1402 36.9303C15.9402 36.0503 14.9602 33.7303 13.8502 32.7703C12.7402 31.8103 11.4902 29.8203 11.4902 29.8203Z" fill="#F2EA37"/>
<path fill-rule="evenodd" clip-rule="evenodd" d="M11.6211 29.6875C11.6211 29.6875 12.8611 31.9175 14.7211 33.2175C16.5811 34.5175 17.0211 34.6975 17.9711 35.9175C17.5711 35.0875 16.0111 32.9675 14.6811 32.2075C13.3511 31.4475 11.6211 29.6875 11.6211 29.6875Z" fill="#F2EA37"/>
<path d="M12.26 29.6875H7.5V30.3275H12.26V29.6875Z" fill="#F2EA37"/>
<path fill-rule="evenodd" clip-rule="evenodd" d="M21.2711 38.4025H21.3611C21.9211 38.4025 22.4711 38.4725 23.0811 38.4525C23.5111 38.4225 23.9911 38.4625 24.4111 38.4725C23.4111 38.5025 22.3511 38.4325 21.3611 38.4725C21.4611 38.5525 21.5711 38.6125 21.7011 38.6225C22.0311 38.6425 22.3611 38.6425 22.6911 38.6625V38.5625C23.6011 38.7025 24.4611 38.5025 25.3611 38.6325C25.3311 38.6525 25.3511 38.6725 25.3611 38.6825C25.3611 38.7025 25.3611 38.7125 25.3111 38.7125C25.3711 38.7125 25.3711 38.7025 25.3611 38.6825C24.4711 38.6625 23.6311 38.6625 22.7311 38.6625C24.1311 38.7025 25.4711 38.7425 26.8811 38.7225H27.1211C27.3511 38.6525 27.5911 38.6125 27.8311 38.6125C27.7711 38.4825 28.0111 38.2125 27.5311 38.2725V38.1625C28.0111 38.0325 28.1911 37.6625 27.7111 37.5625C27.1711 37.4525 26.4411 37.5625 25.7911 37.5225C25.3211 37.4925 24.8411 37.4925 24.3711 37.5225C23.7211 37.5925 23.0111 37.5325 22.3711 37.5825C22.1311 37.5925 21.7311 37.4625 21.6111 37.5225C21.5511 37.5325 21.5111 37.5825 21.5111 37.6425C21.5111 37.6425 21.5111 37.6625 21.5111 37.6725C21.9011 37.7225 22.2811 37.7525 22.6711 37.7725C23.1411 37.7725 23.6211 37.7725 24.0911 37.7225C23.6211 37.7825 23.1511 37.8025 22.6711 37.7725C22.2911 37.7725 21.9011 37.7525 21.5211 37.7325C21.5311 37.7825 21.5211 37.8425 21.5011 37.8925C21.4811 37.9425 21.3811 37.8725 21.3211 37.8725C21.2011 37.9025 21.1211 38.0025 21.1211 38.1225C21.1211 38.1925 21.1511 38.2625 21.2011 38.3025L21.2911 38.4025" fill="#EC2227"/>
<path fill-rule="evenodd" clip-rule="evenodd" d="M34.6607 29.1278L34.6207 28.9878H34.6107L34.6507 29.1278H34.6607ZM34.7207 28.8878C34.7207 28.8878 34.6707 28.7978 34.6407 28.7678C34.6707 28.5378 34.5807 28.3178 34.4107 28.1678C34.4107 28.2078 34.4007 28.2478 34.3907 28.2878C34.4507 28.3878 34.5007 28.3878 34.4807 28.2678C34.5207 28.5378 34.5807 28.7578 34.6207 28.9878C34.6607 28.9678 34.7107 28.9578 34.7207 28.8878ZM32.7707 27.3978C32.7707 27.3978 32.8007 27.2578 32.7107 27.2578C32.5307 27.2378 32.3407 27.1978 32.1607 27.1578C32.0707 27.1578 32.0007 26.9578 31.9107 26.9778C31.7107 26.9578 31.1707 27.0678 31.4607 27.1178C31.8307 27.1678 32.1907 27.2478 32.5407 27.3578C32.8607 27.4178 33.1607 27.5178 33.4507 27.6678C33.5207 27.7178 33.5907 27.7778 33.6407 27.8478C33.5707 27.7478 33.5007 27.6478 33.4107 27.5678C33.2907 27.4278 33.0107 27.4878 32.7607 27.4078M33.1107 26.9578C33.1107 26.9578 33.1507 27.0278 33.1607 27.0478C33.1507 27.0178 33.1307 26.9878 33.1107 26.9578ZM33.1107 26.9578C33.1107 26.9578 33.0907 26.8978 33.1507 26.8978L33.0207 26.8578C33.0207 26.8578 33.0907 26.9178 33.1207 26.9578M32.8007 26.7578C32.8707 26.7978 32.9407 26.8278 33.0207 26.8578C32.9507 26.8078 32.8807 26.7778 32.8007 26.7578ZM33.2407 26.9278L33.2007 26.9078H33.1607L33.2407 26.9278ZM33.6707 27.2178L33.4507 27.0578C33.4507 27.0578 33.5107 27.1378 33.5307 27.1778C33.5707 27.2278 33.6107 27.2178 33.6707 27.2178Z" fill="#FAA71B"/>
<path fill-rule="evenodd" clip-rule="evenodd" d="M31.85 26.5837C31.3 26.4537 30.73 26.3738 30.16 26.3538C30.12 26.3838 30.09 26.4137 30.03 26.3937C29.99 26.3637 29.95 26.3537 29.9 26.3438H29.66L29.58 26.3638C29.58 26.3638 29.55 26.4037 29.58 26.4237C29.61 26.4437 29.64 26.4537 29.67 26.4837C29.65 26.4737 29.61 26.4537 29.58 26.4237C29.54 26.4037 29.5 26.3937 29.45 26.3837C29.38 26.4037 29.3 26.4137 29.22 26.4137C29.29 26.3837 29.37 26.3737 29.45 26.3837L29.58 26.3638L29.62 26.3438C29.44 26.3438 29.26 26.3538 29.07 26.3638C29.03 26.3638 28.99 26.3837 28.96 26.3937C28.83 26.4337 28.71 26.4837 28.61 26.4137H28.51L28.53 26.4338H28.49C28.35 26.4538 28.22 26.4837 28.08 26.5037C28 26.5537 27.92 26.6137 27.84 26.6637L27.73 26.6138C27.73 26.6138 27.66 26.7037 27.61 26.7337C27.69 26.7537 27.77 26.7838 27.84 26.7938C27.95 26.8438 27.99 26.5838 28.14 26.7038C27.99 26.5838 27.94 26.8438 27.84 26.7938C27.77 26.7838 27.69 26.7537 27.61 26.7337C27.48 26.8037 27.32 26.8337 27.17 26.8137C27.29 26.7037 27.46 26.6737 27.61 26.7337C27.66 26.7037 27.7 26.6638 27.73 26.6138L27.84 26.6637C27.92 26.6137 28 26.5537 28.08 26.5037C27.81 26.5537 27.54 26.6237 27.28 26.7137C26.39 26.9737 25.59 27.4838 24.98 28.1938C24.36 28.8938 24.14 30.1238 24.76 31.0438C25.38 32.0238 26.37 32.5538 27.32 32.9038C29.32 33.5438 31.16 33.1938 33.25 32.5638C33.79 32.3538 34.26 32.0238 34.65 31.5938C35.09 31.1238 35.39 30.5437 35.53 29.9137C35.41 28.5137 34.64 29.3338 34.62 29.2938C34.41 29.4938 34.22 29.7237 34.08 29.9837C33.89 30.3237 33.59 30.5937 33.22 30.7337C33.89 30.3737 33.06 31.4438 32.2 31.3438C31.13 31.2138 29.87 31.9337 28.63 31.6537C28.34 31.5837 28.03 31.5637 27.69 31.4737C25.97 30.8137 24.87 29.7738 26.27 28.5338C26.59 28.2138 26.93 27.9137 27.29 27.6337C27.58 27.5137 27.88 27.4238 28.19 27.3738C28.59 27.2738 28.93 27.1438 29.28 27.0438C28.92 27.1138 28.56 27.2137 28.21 27.3337C27.94 27.4137 28.35 27.0937 28.54 27.0037C28.62 26.9537 28.78 27.1037 28.85 27.0537C29.03 27.0037 29.2 26.9438 29.38 26.8738C29.46 26.8338 29.46 26.9837 29.5 26.9637C29.76 26.9237 29.97 26.7037 30.14 26.7537C30.26 26.7737 30.38 26.8038 30.5 26.8438C30.57 26.8637 30.64 26.8738 30.72 26.8738L30.87 26.8438C31.26 26.7937 31.66 26.7937 32.05 26.8438C31.81 26.7838 31.59 26.6937 31.39 26.5637C31.48 26.6237 31.46 26.6537 31.35 26.6437L31.27 26.5537C31.48 26.5137 31.7 26.5638 31.87 26.7038H32.01C32.07 26.7238 32.05 26.7737 32.05 26.8237L32.18 26.8538C32.08 26.7438 31.97 26.6437 31.84 26.5637" fill="#FAA71B"/>
<path fill-rule="evenodd" clip-rule="evenodd" d="M29.4418 26.3872L29.5518 26.3672C29.4018 26.3672 29.2418 26.3772 29.0918 26.3872C29.1818 26.4572 29.3018 26.4272 29.4418 26.3872Z" fill="#FAA71B"/>
<path fill-rule="evenodd" clip-rule="evenodd" d="M30.3602 28.0778V27.7978C30.3602 27.5578 30.3802 27.3078 30.4202 27.0778C30.4702 26.1478 30.5002 25.1978 30.4802 24.2478H30.4502V23.5678C30.4502 23.0878 30.5002 22.6078 30.5702 22.1378C30.6502 21.7578 30.6902 21.3678 30.7002 20.9678C30.7002 20.6978 30.6002 20.4478 30.4002 20.2778C30.2802 20.1478 30.1202 20.0478 29.9402 20.0078C29.8502 20.0078 29.6502 20.2378 29.3602 20.6978C29.0602 21.1578 28.9102 21.4278 28.9102 21.4978C28.9302 21.6478 28.9602 21.8078 29.0002 21.9578C29.0802 22.4178 29.1102 22.8778 29.1002 23.3378C29.1002 23.4478 29.0802 23.5678 29.0502 23.6778V34.1178C29.0702 34.4378 29.0802 34.8178 29.0902 35.2578C29.1102 36.8278 29.1502 37.8578 29.2102 38.3678C29.2802 38.9078 29.3102 39.4578 29.3002 40.0078C29.7902 38.4178 30.1202 36.7878 30.2802 35.1378C30.3002 34.8678 30.3302 34.6278 30.3602 34.3978C30.1002 32.2578 30.2302 30.1778 30.3602 28.0878" fill="#231F20"/>
<path fill-rule="evenodd" clip-rule="evenodd" d="M28.6202 31.7025C28.6202 31.7025 30.3702 31.7025 30.7202 31.5625L30.8602 33.1125C30.8602 33.1125 28.9702 33.3925 28.4102 33.1125L28.6102 31.7125" fill="#FAA71B"/>
<path fill-rule="evenodd" clip-rule="evenodd" d="M22.2215 38.2702L22.1815 38.0502C21.9815 36.6802 21.9315 35.3002 21.8215 33.7602C21.7315 32.6802 21.7415 31.4502 21.7415 30.3702C21.7815 32.9302 21.8615 35.6102 22.2615 38.0302C22.3115 37.7402 22.3215 37.4402 22.3015 37.1402C22.2015 36.3202 22.1615 35.5002 22.1015 34.6902H22.0015C21.9915 32.3902 21.7615 30.2402 21.9415 27.9302C21.9515 28.0102 21.9715 27.9602 21.9915 27.9502C22.0115 27.9302 22.0215 27.9502 22.0115 28.0902C22.0115 27.9502 22.0115 27.9402 21.9915 27.9502C21.9215 30.2202 21.9615 32.3502 22.1015 34.6002C21.9015 31.0902 22.0315 27.7002 22.1715 24.0902C22.1715 23.9302 22.1915 23.6302 22.1915 23.4702C22.1415 22.8502 22.1415 22.2302 22.1715 21.6202C22.0315 21.7702 21.8015 21.1402 21.8015 22.3702H21.7015C21.6215 21.1302 21.2815 20.6502 21.1215 21.8802C20.9515 23.2702 20.9715 25.1202 20.8815 26.8302C20.8115 28.0702 20.7815 29.3102 20.8315 30.5502C20.9115 32.2602 20.9215 34.1202 21.1315 35.8202C21.1815 36.4402 21.1915 37.5302 21.3015 37.8302C21.3615 38.0502 21.4115 38.0502 21.4715 38.0102C21.3715 37.0002 21.3115 35.9802 21.2515 34.9802C21.1715 33.7502 21.0915 32.5202 21.0515 31.2902C21.1215 32.4902 21.1915 33.7302 21.2515 34.9802C21.3215 35.9802 21.4015 36.9802 21.5215 37.9802C21.5715 37.9402 21.6215 37.9002 21.6815 37.9602L21.7215 38.4202C21.9015 39.0202 22.0715 38.8502 22.1715 38.5302C22.1915 38.4502 22.2115 38.3602 22.2315 38.2602" fill="#EC2227"/>
<path fill-rule="evenodd" clip-rule="evenodd" d="M38.7509 21.6217L38.6609 21.6417C38.1009 21.7217 37.5409 21.6817 36.9209 21.7317C36.4609 21.7617 36.0009 21.7617 35.5509 21.7317C36.5909 21.7017 37.6809 21.7417 38.6709 21.5617C38.5609 21.4917 38.4409 21.4517 38.3109 21.4517C37.9809 21.4717 37.6409 21.4817 37.3109 21.4917V21.6017C36.3709 21.5117 35.5009 21.7017 34.5609 21.5517C34.5909 21.5317 34.5709 21.5117 34.5609 21.5017C34.5609 21.4817 34.5609 21.4717 34.6209 21.4717C34.5609 21.4717 34.5609 21.4717 34.5609 21.5017C35.4809 21.5417 36.3509 21.5417 37.2609 21.5017C35.8409 21.5317 34.4609 21.4417 32.9909 21.4317H32.7409C32.5009 21.5017 32.2409 21.5417 31.9909 21.5317C32.0509 21.6617 31.8009 21.9317 32.3009 21.8717V21.9817C31.8009 22.1117 31.6109 22.4717 32.1109 22.5817C32.6709 22.6817 33.4109 22.5817 34.1009 22.6517C34.6009 22.7017 35.1009 22.7117 35.6009 22.6817C36.2909 22.6117 37.0409 22.6617 37.7309 22.5617C37.9809 22.5417 38.4209 22.6217 38.5409 22.5417C38.5909 22.5317 38.6309 22.4817 38.6309 22.4217C38.6309 22.4117 38.6309 22.3917 38.6309 22.3817C38.2209 22.3817 37.8109 22.3817 37.4009 22.3917C36.9009 22.4117 36.4009 22.4417 35.9009 22.4817C36.4009 22.4217 36.9109 22.3817 37.4109 22.3817C37.8109 22.3617 38.2109 22.3517 38.6209 22.3217C38.6009 22.2717 38.6009 22.2117 38.6209 22.1617H38.8109C39.0609 22.0317 39.0009 21.8517 38.8709 21.7217C38.8409 21.6917 38.8009 21.6617 38.7609 21.6317M28.0609 21.8217H27.9609C27.3809 21.7817 26.8109 21.6917 26.1809 21.7017C25.7409 21.7217 25.2409 21.6817 24.8009 21.6817C25.8409 21.6317 26.9309 21.7117 27.9809 21.7417C27.8809 21.6517 27.7609 21.5917 27.6309 21.5617C27.2809 21.5117 26.9309 21.5117 26.5909 21.4817V21.5817C25.6409 21.4217 24.7509 21.6317 23.8209 21.5217C23.8509 21.5117 23.8309 21.4917 23.8209 21.4717C24.7409 21.4717 25.6209 21.4517 26.5609 21.4717C25.0909 21.4017 23.7109 21.4317 22.2709 21.4717H22.0209C21.7809 21.5517 21.5409 21.5817 21.2909 21.5817C21.3509 21.7117 21.1109 21.9817 21.6009 21.9217C21.6009 21.9517 21.6009 21.9917 21.6009 22.0217C21.1109 22.1617 20.9209 22.5317 21.4209 22.6217C21.9909 22.7317 22.7409 22.5917 23.4209 22.6217C23.9009 22.6417 24.3809 22.6417 24.8609 22.6017C25.5309 22.5317 26.2509 22.5717 26.9109 22.5617C27.1509 22.5617 27.5509 22.7117 27.6809 22.6517C27.7409 22.6517 27.7909 22.5917 27.7909 22.5317C27.7909 22.5317 27.7909 22.5217 27.7909 22.5117C27.4009 22.4417 27.0109 22.3817 26.6109 22.3617C26.1309 22.3417 25.6409 22.3617 25.1609 22.4017C25.6409 22.3417 26.1309 22.3317 26.6109 22.3617C27.0009 22.3717 27.3909 22.4117 27.7809 22.4617C27.7809 22.4117 27.7809 22.3517 27.8109 22.3017L27.9909 22.3317C28.1209 22.3217 28.2209 22.2117 28.2209 22.0817C28.2209 22.0217 28.2009 21.9517 28.1509 21.9117C28.1209 21.8817 28.0909 21.8417 28.0609 21.8017" fill="#EC2227"/>
<path fill-rule="evenodd" clip-rule="evenodd" d="M31.8013 38.8292H32.1213C34.0613 38.7392 36.0113 38.8592 38.1813 38.7992H38.5813L38.9113 38.4792V37.6992C38.9113 37.2992 38.9113 36.8992 38.9213 36.4792V34.0792C38.9413 34.9792 38.9613 35.8892 38.9513 36.8192C38.9513 37.2792 38.9513 37.7392 38.9413 38.1992V38.4692C39.0213 38.3892 38.2513 39.1292 38.5813 38.8192H37.4813C35.6513 38.8292 33.8513 38.7992 32.1313 38.8892C32.5413 38.9692 32.9613 39.0092 33.3713 39.0092C34.5313 39.0092 35.6813 39.0192 36.8313 39.0192V38.9192C37.2313 38.9392 37.6313 38.9492 38.0313 38.9492H38.5613C38.1113 39.3792 39.1713 38.3492 39.0613 38.4592V37.7992C39.0913 36.9992 39.0713 36.1992 39.0713 35.4192C39.0413 33.8392 38.9813 32.2592 39.0113 30.6392C39.0313 30.7492 39.0513 30.6892 39.0613 30.6592C39.0813 32.2592 39.1113 33.8192 39.1313 35.3692V38.4792C38.9413 38.6592 38.7513 38.8392 38.5713 39.0292H36.9413H38.5513C38.8213 38.7892 37.9813 39.6092 39.1313 38.4792V38.2492C39.1513 37.6292 39.1513 37.0092 39.1613 36.3892C39.1613 35.1492 39.1513 33.9292 39.1313 32.6992C39.0913 30.2392 39.0313 27.7792 39.1013 25.2592C39.1013 25.0392 39.1213 24.6092 39.1313 24.3992C39.0913 23.5392 39.1113 22.6692 39.1913 21.8092C39.0513 22.0092 38.8513 21.1292 38.7713 22.8592H38.6613C38.6613 21.1192 38.3813 20.4092 38.1113 22.1592C37.8413 24.1292 37.9113 26.7592 37.8913 29.1592C37.8913 30.8992 37.9113 32.6392 37.9813 34.3592C38.0313 35.5492 38.0413 36.7892 38.0313 38.0292V38.4492L38.5613 37.9292H37.1313C36.5213 37.9392 35.9113 37.9592 35.3313 37.9692C34.4713 37.9692 32.9513 37.8592 32.5113 37.9392C32.2013 37.9692 32.1913 38.0292 32.2313 38.0892C33.6613 38.0892 35.0813 38.1392 36.4713 38.1492H37.7613L38.4013 38.1292H38.5613C37.8913 38.7792 38.3713 38.3092 38.2313 38.4492V37.9792C38.2313 37.1192 38.2313 36.2592 38.1913 35.3992C38.2313 36.2392 38.2513 37.0892 38.2413 37.9592V38.4592C37.9513 38.7392 38.6413 38.0792 38.5613 38.1492H36.4513C35.0513 38.1492 33.6513 38.1192 32.2513 38.1492C32.3013 38.1992 32.3513 38.2592 32.2613 38.3092H31.6113C30.7513 38.4392 30.9613 38.6192 31.3913 38.7492C31.5013 38.7792 31.6213 38.8092 31.7613 38.8392" fill="#EC2227"/>
<path fill-rule="evenodd" clip-rule="evenodd" d="M50.0005 26.1069C50.1605 25.6769 50.0005 24.6869 50.0005 24.6869C50.2605 25.0669 50.4105 26.2169 50.4105 26.2169C50.5405 25.3869 50.0005 23.8769 50.0005 23.8769C50.4705 24.5769 51.0305 26.7069 51.0305 26.7069C51.0005 25.5869 50.0005 23.0069 50.0005 23.0069C50.6205 23.6069 51.9705 27.7769 51.9705 27.7769C51.7905 25.5869 50.0005 22.0869 50.0005 22.0869C51.3005 23.4469 52.9905 29.0269 52.9905 29.0269C52.6505 25.8769 50.0705 21.3269 50.0005 21.1969C52.6505 24.9769 53.7105 29.7769 53.7105 29.7769C53.6705 26.3169 50.0005 20.2669 50.0005 20.2669C53.8305 25.2469 54.4505 30.4069 54.4505 30.4069C54.8105 26.3469 50.6405 20.2369 50.6405 20.2369C55.6105 26.5569 55.2005 31.3669 55.2005 31.3669C56.1005 27.3469 51.3605 20.0469 51.3605 20.0469C53.8505 22.6269 55.4405 25.9869 55.8805 29.6069C56.0405 31.8569 55.5805 34.0969 54.5505 36.1069C53.2605 38.6169 50.0104 39.9369 50.0104 39.9369C50.0104 39.9369 46.7505 38.6069 45.4705 36.1069C44.4405 34.1069 43.9805 31.8569 44.1405 29.6069C44.5805 25.9969 46.1705 22.6269 48.6505 20.0469C48.6505 20.0469 43.9105 27.3469 44.8105 31.3669C44.8105 31.3669 44.3905 26.5569 49.3605 20.2369C49.3605 20.2369 45.1905 26.3469 45.5605 30.4069C45.5605 30.4069 46.1804 25.2469 50.0104 20.2669C50.0104 20.2669 46.3305 26.3169 46.3005 29.7769C46.3005 29.7769 47.3604 24.9769 50.0104 21.1969C49.9404 21.3269 47.3605 25.8769 47.0305 29.0269C47.0305 29.0269 48.7104 23.4469 50.0104 22.0869C50.0104 22.0869 48.2205 25.5869 48.0405 27.7769C48.0405 27.7769 49.3904 23.6169 50.0104 23.0069C50.0104 23.0069 49.0005 25.5769 48.9805 26.7069C48.9805 26.7069 49.5404 24.5669 50.0104 23.8769C50.0104 23.8769 49.4705 25.3769 49.6005 26.2169C49.6005 26.2169 49.7504 25.0569 50.0104 24.6869C50.0104 24.6869 49.8504 25.6669 50.0104 26.1069H50.0005Z" fill="#1E9649"/>
<path fill-rule="evenodd" clip-rule="evenodd" d="M50.0013 38.68C47.9913 38.68 46.3613 36.96 46.3613 33.94C46.3613 30.92 47.9913 27.75 50.0013 27.75C52.0113 27.75 53.6313 30.92 53.6413 33.94C53.6413 36.96 52.0113 38.68 50.0013 38.68Z" fill="white"/>
<path fill-rule="evenodd" clip-rule="evenodd" d="M50.0016 38.3294C48.1216 38.3294 46.6016 36.7194 46.6016 33.8994C46.6016 31.0794 48.1216 28.1094 50.0016 28.1094C51.8816 28.1094 53.4016 31.0694 53.4016 33.8994C53.4016 36.7294 51.8816 38.3294 50.0016 38.3294Z" fill="#F79533"/>
<path fill-rule="evenodd" clip-rule="evenodd" d="M51.2306 37.1178C50.6706 37.3278 50.4406 37.0478 50.0006 37.0478C49.5606 37.0478 49.4206 37.3278 48.7606 37.0978C47.8706 36.7978 47.3906 35.2978 47.3906 34.2078C47.3906 32.6078 48.5506 31.7578 50.0006 31.7578C51.4506 31.7578 52.6106 32.6078 52.6106 34.2078C52.6106 35.3178 52.1306 36.7778 51.2306 37.1078V37.1178Z" fill="white"/>
<path fill-rule="evenodd" clip-rule="evenodd" d="M50.8306 36.7594C50.2506 36.7594 50.2006 35.6994 50.0006 35.6994C49.8406 35.6994 49.7906 36.7994 49.2706 36.7994C48.4406 36.7994 47.6406 35.5294 47.6406 34.2994C47.6406 32.7894 48.6306 32.1094 49.9906 32.1094C51.3506 32.1094 52.3506 32.7794 52.3506 34.2994C52.3506 35.4894 51.5406 36.7594 50.8206 36.7594H50.8306Z" fill="#2A2664"/>
<path fill-rule="evenodd" clip-rule="evenodd" d="M98.32 37.89V33.28L98.57 32.5H98.55C99.27 31.51 98.52 30.55 98.05 30.17C97.72 29.87 97.46 29.51 97.27 29.11C97.21 28.91 97.16 28.7 97.13 28.49C97.16 28.47 97.19 28.44 97.2 28.41C97.22 28.38 97.23 28.34 97.23 28.31C97.23 28.26 97.21 28.21 97.18 28.17C97.14 28.13 97.1 28.11 97.04 28.1V26.92L97.17 27.18V27.15L97.04 26.89V26.56H96.99V26.8L96.87 26.56V26.59L96.99 26.83V28.1C96.99 28.1 96.89 28.12 96.85 28.14C96.81 28.17 96.78 28.21 96.77 28.25C96.76 28.3 96.77 28.34 96.77 28.39C96.79 28.43 96.82 28.47 96.87 28.49C96.84 28.7 96.8 28.91 96.73 29.11C96.54 29.51 96.28 29.87 95.95 30.17C95.48 30.55 94.73 31.5 95.45 32.48L95.43 32.5L95.79 33.28V34.26H95.71L95.6 34.52H95.39V34.75C95.21 34.78 95.05 34.87 94.92 35C94.8 35.13 94.72 35.3 94.71 35.47V34.7L94.99 34.41V34.13C95.24 33.9 95.39 33.58 95.39 33.24C95.39 32.66 95.18 32.23 94.29 31.75C94.04 31.63 93.84 31.43 93.72 31.18C93.68 31.12 93.66 31.05 93.66 30.98L93.6 30.55C93.6 30.55 93.67 30.5 93.69 30.46C93.73 30.38 93.71 30.28 93.65 30.23C93.62 30.2 93.58 30.18 93.53 30.18V29.35L93.66 29.5V29.46L93.53 29.31V29.07H93.48V29.25L93.33 29.07V29.11L93.48 29.29V30.18C93.48 30.18 93.38 30.21 93.35 30.25C93.32 30.29 93.3 30.33 93.3 30.38C93.3 30.45 93.34 30.52 93.41 30.56L93.35 31C93.35 31.07 93.33 31.14 93.29 31.2C93.18 31.42 93 31.61 92.79 31.73L92.31 29.25L92.66 29.05L92.02 28.77C92.02 28.62 91.96 28.47 91.85 28.37V28.21L91.78 28.11L91.63 27.45H91.48L90.73 24.71V24.58L90.85 24.45V24.1L90.7 23.95V23.62L90.91 23.18C91.05 23.04 91.14 22.86 91.14 22.66C91.14 22.51 91.09 22.37 91.01 22.25C90.93 22.13 90.81 22.03 90.67 21.97C90.57 21.89 90.49 21.78 90.44 21.67C90.4 21.56 90.39 21.43 90.41 21.32C90.43 21.3 90.45 21.28 90.46 21.26C90.46 21.23 90.46 21.21 90.46 21.18C90.46 21.15 90.44 21.13 90.42 21.11C90.4 21.09 90.37 21.08 90.34 21.08V20.27L90.42 20.44V20.42L90.34 20.25V20.01H90.32V20.2L90.22 20V20.02L90.32 20.22V21.08C90.32 21.08 90.25 21.1 90.23 21.12C90.21 21.14 90.19 21.18 90.19 21.21C90.19 21.25 90.21 21.29 90.24 21.31C90.25 21.43 90.24 21.55 90.2 21.66C90.15 21.78 90.07 21.88 89.97 21.96C89.83 22.02 89.71 22.11 89.63 22.24C89.55 22.36 89.5 22.5 89.5 22.65C89.5 22.85 89.58 23.04 89.73 23.17L89.94 23.61V23.94L89.78 24.09V24.43L89.91 24.56V24.69L89.16 27.43H89.01L88.86 28.09L88.78 28.19V28.35C88.67 28.45 88.6 28.6 88.61 28.75L87.97 29.03L88.32 29.23V29.59C88.26 29.55 88.2 29.52 88.13 29.48C87.83 29.33 87.58 29.09 87.42 28.8C87.38 28.69 87.36 28.57 87.34 28.45L87.27 27.91C87.27 27.91 87.35 27.86 87.37 27.82C87.43 27.73 87.42 27.61 87.34 27.53C87.3 27.48 87.24 27.46 87.18 27.45V26.41L87.34 26.6V26.56L87.18 26.36V26.08H87.12V26.3L86.94 26.08V26.12L87.12 26.34V27.44C87.06 27.44 87 27.48 86.96 27.52C86.92 27.56 86.9 27.62 86.9 27.68C86.9 27.73 86.91 27.77 86.94 27.81C86.97 27.85 87 27.88 87.04 27.9L86.96 28.44C86.94 28.56 86.91 28.68 86.87 28.8C86.72 29.11 86.47 29.36 86.16 29.51C85.06 30.11 84.8 30.8 84.8 31.53C84.8 31.74 84.85 31.95 84.94 32.14C85.03 32.33 85.16 32.51 85.32 32.65L85.28 32.7L85.39 33.07H85.48V33.3L85.62 33.38V33.67L85.75 33.78V34.7C85.67 34.73 85.59 34.76 85.52 34.8C85.59 34.66 85.63 34.5 85.63 34.34C85.63 33.7 85.41 33.08 84.49 32.54V32.18L84.62 32.34V32.3L84.49 32.15V31.91H84.45V32.09L84.3 31.91V31.95L84.45 32.13V32.53C84.45 32.53 84.41 32.51 84.39 32.5C84.11 32.36 83.88 32.13 83.74 31.85C83.6 31.57 83.52 31.18 83.5 31.03L83.43 30.54C83.43 30.54 83.51 30.48 83.53 30.44C83.58 30.35 83.56 30.24 83.48 30.18C83.44 30.15 83.4 30.12 83.35 30.12V29.01L83.49 29.19V29.15L83.35 28.97V28.7H83.3V28.9L83.13 28.7V28.74L83.3 28.94V30.11C83.24 30.11 83.19 30.14 83.15 30.19C83.11 30.23 83.09 30.29 83.09 30.34C83.09 30.43 83.14 30.5 83.22 30.54L83.15 31.03C83.14 31.18 82.91 31.85 82.91 31.85C82.77 32.14 82.54 32.37 82.26 32.51C81.25 33.06 81 33.7 81 34.36C81 35.02 81.65 35.4 81.65 35.4V35.64L81.74 35.73V36.09L81.88 36.23V37.92" fill="#2A3C95"/>
<path fill-rule="evenodd" clip-rule="evenodd" d="M98.9902 40.0028H81.2402L81.9002 38.3828H98.3202L98.9902 40.0028Z" fill="#D72027"/>
<path fill-rule="evenodd" clip-rule="evenodd" d="M100.812 26.06C100.082 27.77 99.8319 29.66 100.112 31.5L107.892 29.76L100.812 26.06ZM108.362 28.63L104.452 21.69C102.902 22.72 101.672 24.17 100.902 25.86L108.362 28.63ZM111.642 28.63L119.102 25.86C118.332 24.17 117.102 22.72 115.552 21.69L111.642 28.63ZM119.892 31.5C120.172 29.66 119.932 27.77 119.202 26.06L112.112 29.76L119.892 31.5ZM110.612 27.96L115.362 21.56C113.792 20.56 111.972 20.02 110.112 20L110.612 27.96ZM109.892 20C108.032 20.02 106.212 20.56 104.632 21.56L109.392 27.96L109.882 20H109.892Z" fill="#2BACE2"/>
<path fill-rule="evenodd" clip-rule="evenodd" d="M110 30.7991L100.15 31.7191C100.98 36.4891 105.16 39.9991 110 39.9991C111.49 39.9991 112.96 39.6691 114.31 39.0191C112.56 37.9591 110.71 37.0891 108.78 36.3991C104.87 35.0191 98.0504 32.5091 110 30.7891C110 30.7891 104.01 32.3891 107 32.9191C109.19 33.2991 114.6 34.0091 118.28 35.5891C119.07 34.4191 119.61 33.0991 119.85 31.7091L110 30.7891V30.7991Z" fill="#FBCA19"/>
<path fill-rule="evenodd" clip-rule="evenodd" d="M118.282 35.5969C114.602 34.0269 109.192 33.3069 107.002 32.9169C104.012 32.3969 110.002 30.7969 110.002 30.7969C98.0516 32.5269 104.872 35.0269 108.782 36.4169C110.712 37.0969 112.562 37.9769 114.312 39.0269C115.912 38.2569 117.282 37.0769 118.282 35.5969Z" fill="#292562"/>
<path fill-rule="evenodd" clip-rule="evenodd" d="M119.851 31.7178L119.891 31.4978L112.111 29.7578L119.201 26.0578C119.171 25.9878 119.141 25.9178 119.111 25.8578L111.641 28.6278L115.551 21.6878C115.491 21.6478 115.421 21.6078 115.361 21.5678L110.611 27.9678L110.111 20.0078H109.891L109.401 27.9678L104.651 21.5678C104.591 21.6078 104.521 21.6478 104.461 21.6878L108.361 28.6378L100.901 25.8678L100.811 26.0678L107.891 29.7778L100.111 31.5178L100.151 31.7378L110.001 30.8178L119.851 31.7378V31.7178Z" fill="white"/>
<path fill-rule="evenodd" clip-rule="evenodd" d="M130 22.8203C129.25 24.5203 128.85 26.3603 128.82 28.2203C128.83 29.6003 129.06 30.9703 129.49 32.2803C129.64 32.7403 129.81 33.1903 130 33.6303C130.76 31.9303 131.16 30.0903 131.2 28.2203C131.18 26.8403 130.96 25.4803 130.53 24.1703C130.4 23.7503 130.24 23.3403 130.07 22.9403C130.04 22.9003 130.03 22.8603 130 22.8303V22.8203Z" fill="#7D66AD"/>
<path fill-rule="evenodd" clip-rule="evenodd" d="M126.761 25.3219L126.571 28.3719L124.861 27.6819L126.761 25.3219ZM126.891 25.2319L128.711 26.8419L129.391 23.6519L130.011 22.1719L128.831 22.7119L126.901 25.2319H126.891ZM130.401 32.9219C130.401 33.4319 130.231 33.8519 130.021 33.8519C129.811 33.8519 129.631 33.4419 129.631 32.9219C129.631 32.4019 129.801 31.9919 130.001 31.9919C130.201 31.9919 130.401 32.4119 130.401 32.9219Z" fill="#2DB674"/>
<path fill-rule="evenodd" clip-rule="evenodd" d="M122.4 30.6097L124.86 27.6797L125.04 29.2997L125.33 30.6097L122.71 30.9097L122.25 30.8297L122.4 30.6097Z" fill="#2DB674"/>
<path fill-rule="evenodd" clip-rule="evenodd" d="M133.201 25.3219L133.391 28.3719L135.101 27.6819L133.201 25.3219ZM133.071 25.2319L131.251 26.8419L130.571 23.6519L129.951 22.1719L131.131 22.7119L133.061 25.2319H133.071ZM122.511 30.7319L123.061 32.0219L123.841 32.9319L120.671 33.9019L120.231 34.0719L120.021 33.5719L122.521 30.7219L122.511 30.7319Z" fill="#2DB674"/>
<path fill-rule="evenodd" clip-rule="evenodd" d="M137.561 30.6097L135.101 27.6797L134.921 29.2997L134.631 30.6097L137.251 30.9097L137.711 30.8297L137.561 30.6097Z" fill="#2DB674"/>
<path fill-rule="evenodd" clip-rule="evenodd" d="M137.451 30.7422L136.901 32.0322L136.121 32.9422L139.291 33.9122L139.731 34.0922L139.941 33.5822L137.451 30.7422Z" fill="#2DB674"/>
<path fill-rule="evenodd" clip-rule="evenodd" d="M130.94 34.2062C131.43 34.5962 133.14 35.8162 135.14 35.8162C136.23 35.7862 137.29 35.4863 138.23 34.9463C138.56 34.7663 138.87 34.5563 139.17 34.3263L139.34 34.1963C138.85 33.8063 137.14 32.5863 135.14 32.5863C134.05 32.6263 132.99 32.9362 132.05 33.4762C131.72 33.6562 131.41 33.8662 131.11 34.0962L130.94 34.2062ZM134.95 27.9062C134.41 28.0463 132.77 28.5863 131.75 29.9163C131.21 30.6763 130.85 31.5462 130.71 32.4762C130.66 32.7962 130.63 33.1162 130.61 33.4362V33.5863C131.15 33.4363 132.79 32.9063 133.81 31.5763C134.35 30.8163 134.71 29.9463 134.85 29.0163C134.9 28.6963 134.93 28.3762 134.95 28.0562V27.9062ZM125.05 27.9062V28.0562C125.06 28.3762 125.1 28.6963 125.15 29.0163C125.29 29.9463 125.65 30.8163 126.19 31.5763C127.21 32.9063 128.84 33.4463 129.39 33.5863V33.4362C129.38 33.1162 129.34 32.7962 129.29 32.4762C129.15 31.5562 128.8 30.6763 128.25 29.9163C127.23 28.5863 125.59 28.0563 125.05 27.9062ZM120.67 34.2062L120.84 34.3363C121.14 34.5663 121.45 34.7662 121.78 34.9562C122.72 35.4962 123.78 35.7963 124.86 35.8263C126.86 35.8263 128.56 34.6063 129.06 34.2163L128.89 34.0863C128.59 33.8563 128.27 33.6563 127.95 33.4663C127.01 32.9263 125.95 32.6262 124.86 32.5962C122.87 32.5962 121.16 33.8162 120.66 34.2062H120.67Z" fill="#7D66AD"/>
<path d="M139.161 34.3381C138.861 34.5681 138.541 34.7681 138.221 34.9581C137.281 35.4981 136.221 35.7981 135.131 35.8281C133.421 35.8281 131.931 34.9381 131.231 34.4381C131.431 34.4681 131.631 34.4881 131.871 34.4981C132.011 34.4981 132.151 34.5081 132.281 34.5081C133.041 34.5281 133.791 34.3881 134.491 34.0781C135.191 33.7681 135.821 33.3181 136.331 32.7481C137.421 33.0181 138.441 33.5181 139.331 34.2181L139.171 34.3381H139.161ZM130.001 33.6281C130.001 33.6281 129.971 33.5581 129.951 33.5081C129.891 33.3581 129.831 33.2181 129.771 33.0681C129.871 32.7781 129.951 32.4881 130.011 32.1881C130.071 32.4881 130.141 32.7881 130.231 33.0781C130.161 33.2581 130.081 33.4481 130.001 33.6281ZM124.861 35.8181C123.781 35.7881 122.721 35.4881 121.781 34.9481C121.451 34.7681 121.141 34.5581 120.841 34.3281L120.671 34.1981C121.551 33.5081 122.571 33.0081 123.661 32.7381C124.161 33.2881 124.771 33.7281 125.441 34.0481C126.151 34.3581 126.921 34.5181 127.701 34.5181C127.841 34.5181 127.981 34.5181 128.111 34.5081C128.351 34.4981 128.581 34.4681 128.781 34.4381C128.081 34.9281 126.581 35.8181 124.861 35.8181ZM120.701 32.9981L122.401 30.8981C122.401 30.8981 122.401 30.9381 122.411 30.9581V30.9781C122.681 31.4881 122.991 31.9781 123.361 32.4181C122.271 32.7181 121.241 33.2481 120.361 33.9581C120.241 33.7081 120.341 33.4181 120.691 32.9881L120.701 32.9981ZM127.941 24.0881C128.001 24.0181 128.061 23.9481 128.121 23.8581C128.521 23.3481 129.151 22.5381 129.801 22.3981C129.201 23.6881 128.791 25.0481 128.601 26.4581C128.151 25.9581 127.641 25.5281 127.071 25.1681L127.931 24.0981L127.941 24.0881ZM131.861 23.8581C131.931 23.9481 131.991 24.0281 132.041 24.0881L133.001 25.2681C132.421 25.6581 131.901 26.1181 131.451 26.6381C131.251 25.1781 130.841 23.7481 130.221 22.4081C130.851 22.5681 131.471 23.3581 131.861 23.8581ZM135.141 32.2381C134.571 32.2381 134.011 32.3281 133.471 32.4881C133.971 32.0381 134.371 31.4981 134.651 30.8981C135.051 30.8381 135.461 30.8281 135.861 30.8481C136.291 30.8681 136.711 30.9381 137.121 31.0381C137.101 31.0781 137.071 31.1181 137.051 31.1681C136.891 31.4481 136.711 31.7081 136.521 31.9681C136.431 32.0881 136.321 32.2081 136.211 32.3381C135.861 32.2681 135.501 32.2281 135.141 32.2281V32.2381ZM132.051 33.4981C132.991 32.9581 134.051 32.6581 135.141 32.6281C135.391 32.6281 135.651 32.6481 135.901 32.6881C135.471 33.1281 134.961 33.4781 134.411 33.7281C133.621 34.0681 132.761 34.2081 131.901 34.1381C131.661 34.1281 131.421 34.0981 131.181 34.0581C131.461 33.8581 131.761 33.6681 132.061 33.4981H132.051ZM133.221 26.8381C133.281 27.2881 133.301 27.7381 133.281 28.1881C132.571 28.5581 131.951 29.0781 131.461 29.7081L131.441 29.7381C131.501 29.2381 131.531 28.7381 131.531 28.2381C131.531 27.8681 131.511 27.5181 131.481 27.1681C131.911 26.6281 132.411 26.1481 132.971 25.7281L133.011 25.8681C133.101 26.1881 133.161 26.5081 133.211 26.8381H133.221ZM133.651 27.9981C133.661 27.2381 133.561 26.4781 133.361 25.7381L134.841 27.5581C134.431 27.6681 134.031 27.8181 133.651 27.9981ZM135.291 28.1181L137.431 30.7381C136.921 30.5881 136.401 30.4981 135.881 30.4681C135.531 30.4481 135.171 30.4581 134.821 30.4881C135.111 29.7281 135.271 28.9281 135.301 28.1181H135.291ZM133.191 30.9181C133.011 30.9981 132.841 31.0881 132.681 31.1881C132.951 30.7781 133.171 30.3281 133.341 29.8581C133.491 29.3981 133.591 28.9181 133.631 28.4281C134.051 28.2181 134.491 28.0481 134.941 27.9181V28.0681C134.931 28.3881 134.901 28.7081 134.841 29.0281C134.751 29.5581 134.601 30.0681 134.391 30.5581C133.981 30.6281 133.571 30.7481 133.191 30.9181ZM130.861 33.5181C130.971 33.3481 131.091 33.1781 131.211 33.0181C131.761 32.2681 132.491 31.6681 133.321 31.2581C133.601 31.1381 133.891 31.0381 134.181 30.9781C134.061 31.1881 133.931 31.3981 133.781 31.5881C132.901 32.7381 131.561 33.2881 130.861 33.5181ZM130.721 32.7481C130.961 32.0681 131.161 31.3581 131.301 30.6481C131.431 30.3981 131.581 30.1581 131.751 29.9381C132.161 29.4181 132.671 28.9781 133.251 28.6481C133.211 29.0181 133.121 29.3881 133.011 29.7381C132.501 31.2281 131.341 32.2881 130.741 32.7481H130.731H130.721ZM130.521 28.8881C130.681 28.4381 130.891 28.0081 131.161 27.6181C131.171 27.8281 131.181 28.0281 131.181 28.2281C131.181 28.9981 131.101 29.7581 130.961 30.5081C130.691 31.0581 130.501 31.6381 130.391 32.2381C130.361 32.0881 130.331 31.9281 130.311 31.7681C130.161 30.7981 130.231 29.8081 130.521 28.8781V28.8881ZM129.601 32.3081C129.491 31.7081 129.301 31.1181 129.041 30.5681C128.891 29.7981 128.811 29.0181 128.811 28.2381C128.811 27.9481 128.821 27.6681 128.841 27.3881C129.141 27.8181 129.381 28.2881 129.551 28.7781C129.831 29.7381 129.891 30.7481 129.711 31.7281C129.681 31.9181 129.641 32.1081 129.591 32.2981L129.601 32.3081ZM124.851 32.6181C125.941 32.6581 127.001 32.9581 127.941 33.4981C128.241 33.6681 128.541 33.8581 128.821 34.0581C128.581 34.0981 128.331 34.1281 128.081 34.1381C127.221 34.2081 126.361 34.0681 125.571 33.7281C125.011 33.4681 124.511 33.1081 124.081 32.6781C124.341 32.6381 124.601 32.6181 124.861 32.6181H124.851ZM125.171 30.5081C124.811 30.4681 124.451 30.4581 124.081 30.4881C123.551 30.5181 123.031 30.6081 122.531 30.7581L124.681 28.1081C124.711 28.9281 124.881 29.7381 125.171 30.5081ZM126.301 27.9881C125.921 27.8081 125.531 27.6681 125.121 27.5581L126.631 25.7081C126.411 26.4481 126.301 27.2181 126.301 27.9881ZM128.521 29.6981C128.021 29.0581 127.391 28.5381 126.671 28.1681C126.661 27.6981 126.691 27.2281 126.771 26.7681C126.841 26.3781 126.931 25.9881 127.051 25.6081C127.601 25.9881 128.101 26.4481 128.531 26.9681C128.431 27.8981 128.441 28.8281 128.561 29.7581L128.521 29.6981ZM129.271 32.7781C128.671 32.3381 127.431 31.2681 126.921 29.7281C126.801 29.3681 126.731 28.9981 126.691 28.6181C127.281 28.9481 127.811 29.3981 128.231 29.9381C128.411 30.1781 128.571 30.4381 128.701 30.7081C128.841 31.4081 129.031 32.1081 129.261 32.7781H129.271ZM126.621 31.2581C127.461 31.6681 128.181 32.2681 128.741 33.0181C128.881 33.1981 128.991 33.3681 129.091 33.5081C128.391 33.2781 127.061 32.7281 126.191 31.5881C126.041 31.3981 125.911 31.1981 125.801 30.9881C126.081 31.0481 126.361 31.1481 126.621 31.2581ZM126.311 28.4181C126.361 29.3981 126.671 30.3381 127.221 31.1581C126.721 30.8681 126.171 30.6681 125.601 30.5681C125.391 30.0781 125.241 29.5581 125.151 29.0281C125.101 28.7081 125.061 28.3881 125.051 28.0681V27.9181C125.481 28.0381 125.911 28.1981 126.311 28.4081V28.4181ZM123.451 31.9781C123.251 31.7281 123.081 31.4581 122.921 31.1781C122.891 31.1281 122.871 31.0881 122.851 31.0481C123.261 30.9481 123.681 30.8881 124.111 30.8581C124.521 30.8381 124.941 30.8581 125.351 30.9081C125.631 31.5081 126.031 32.0581 126.531 32.4981C125.991 32.3381 125.431 32.2481 124.861 32.2481C124.501 32.2481 124.131 32.2881 123.771 32.3581C123.661 32.2381 123.561 32.1081 123.461 31.9781H123.451ZM130.191 28.7781C130.141 28.9281 130.101 29.0781 130.061 29.2281C130.021 29.0381 129.971 28.8581 129.911 28.6681C129.691 28.0081 129.351 27.3881 128.911 26.8481C129.081 25.4681 129.441 24.1181 129.991 22.8381C130.011 22.8781 130.021 22.9181 130.041 22.9581C130.211 23.3581 130.371 23.7681 130.501 24.1881C130.801 25.1181 131.001 26.0881 131.101 27.0581C130.711 27.5781 130.401 28.1581 130.191 28.7681V28.7781ZM139.611 33.9881C138.721 33.2681 137.701 32.7481 136.601 32.4381C136.971 31.9981 137.281 31.5181 137.541 31.0081V30.9881C137.541 30.9881 137.561 30.9481 137.561 30.9181L139.271 33.0181C139.591 33.3981 139.771 33.6781 139.611 33.9881ZM139.511 32.8181L135.271 27.6081C135.271 27.6081 135.241 27.5681 135.231 27.5581L132.271 23.9181L132.091 23.6881C131.591 23.0481 130.841 22.0781 129.981 22.0781C129.121 22.0781 128.361 23.0481 127.861 23.6881L127.681 23.9181L120.441 32.8281C120.241 33.0881 119.741 33.6881 120.151 34.2881C120.151 34.2981 120.171 34.3081 120.181 34.3181C120.181 34.3381 120.201 34.3581 120.221 34.3681L120.241 34.3881C120.451 34.5781 122.411 36.2381 124.841 36.2381C127.271 36.2381 129.221 34.5981 129.441 34.3881L129.461 34.3681C129.461 34.3681 129.501 34.3281 129.501 34.2981L129.631 34.2581H129.651C129.651 34.2581 129.721 34.2181 129.741 34.1881C129.761 34.1481 129.761 34.1081 129.751 34.0681C129.771 34.1181 129.791 34.1581 129.811 34.1781V34.2081C129.851 34.2581 129.901 34.2981 129.961 34.2981C130.021 34.2981 130.071 34.2681 130.101 34.2081V34.1781L130.131 34.1381V34.1581C130.131 34.1581 130.181 34.2281 130.231 34.2481H130.251L130.401 34.2881C130.401 34.2881 130.421 34.3281 130.441 34.3481L130.461 34.3681C130.681 34.5581 132.641 36.2181 135.061 36.2181C137.481 36.2181 139.451 34.5781 139.661 34.3681L139.681 34.3481V34.3381C140.221 33.7181 139.801 33.1881 139.481 32.8081L139.511 32.8181Z" fill="white"/>
<path fill-rule="evenodd" clip-rule="evenodd" d="M130.632 33.9338C131.042 34.0338 131.472 34.0937 131.892 34.1237C132.752 34.1937 133.612 34.0537 134.402 33.7137C135.242 33.3037 135.962 32.7038 136.522 31.9538C136.712 31.6938 136.892 31.4337 137.052 31.1537C137.082 31.1037 137.102 31.0638 137.122 31.0238C136.712 30.9238 136.292 30.8637 135.862 30.8337C135.002 30.7637 134.142 30.9137 133.352 31.2437C132.512 31.6537 131.792 32.2537 131.242 33.0037C131.052 33.2637 130.872 33.5237 130.712 33.8037L130.632 33.9338ZM133.002 25.7137C132.522 26.0637 131.112 27.1938 130.542 28.8738C130.252 29.8038 130.172 30.7938 130.322 31.7638C130.372 32.0938 130.432 32.4137 130.522 32.7337L130.562 32.8737C131.042 32.5237 132.452 31.3937 133.022 29.7137C133.312 28.7837 133.392 27.7937 133.242 26.8237C133.202 26.4937 133.132 26.1738 133.042 25.8538C133.022 25.8138 133.002 25.7637 133.002 25.7137ZM127.052 25.5938C126.932 25.9737 126.842 26.3638 126.772 26.7638C126.592 27.7438 126.652 28.7637 126.932 29.7137C127.502 31.4337 128.962 32.5537 129.452 32.8937C129.472 32.8437 129.482 32.7938 129.502 32.7238C129.602 32.3938 129.682 32.0637 129.732 31.7237C129.912 30.7437 129.852 29.7238 129.572 28.7738C129.002 27.0538 127.532 25.9338 127.052 25.5938ZM122.852 31.0238C122.852 31.0238 122.902 31.1037 122.922 31.1537C123.082 31.4337 123.262 31.7038 123.452 31.9538C124.002 32.7038 124.732 33.3037 125.562 33.7137C126.352 34.0537 127.212 34.1937 128.072 34.1237C128.502 34.1037 128.922 34.0338 129.332 33.9338L129.262 33.8037C129.102 33.5237 128.922 33.2537 128.732 33.0037C128.182 32.2537 127.452 31.6537 126.612 31.2437C125.822 30.9037 124.962 30.7637 124.102 30.8337C123.672 30.8637 123.252 30.9238 122.842 31.0238H122.852Z" fill="#A3258D"/>
<path fill-rule="evenodd" clip-rule="evenodd" d="M130.001 37.6275C130.361 37.1675 130.571 36.6075 130.601 36.0275V35.9675C130.531 35.7175 130.481 35.4575 130.431 35.1975C130.321 34.9275 130.181 34.6675 130.001 34.4375C129.821 34.6675 129.671 34.9275 129.561 35.1975C129.521 35.4175 129.471 35.6775 129.391 35.9675V36.0275C129.421 36.6075 129.631 37.1775 129.991 37.6275" fill="#7F6DB1"/>
<path d="M129.72 36.0076V36.0276C129.72 36.3876 129.83 36.7376 130.01 37.0576C130.19 36.7476 130.29 36.3976 130.3 36.0276C130.24 35.7676 130.19 35.5276 130.14 35.2876C130.1 35.1976 130.06 35.0976 130 35.0076C129.95 35.0976 129.91 35.1876 129.87 35.2876C129.83 35.5376 129.78 35.7676 129.72 36.0076ZM130 37.9476C129.91 37.9476 129.82 37.9076 129.76 37.8376C129.34 37.3176 129.1 36.6876 129.07 36.0276V35.9576C129.07 35.9576 129.07 35.9076 129.07 35.8876C129.13 35.6376 129.19 35.3876 129.23 35.1476C129.23 35.1276 129.23 35.1076 129.25 35.0876C129.37 34.7776 129.54 34.4876 129.75 34.2276C129.84 34.1176 130 34.0876 130.13 34.1476C130.17 34.1676 130.21 34.1976 130.24 34.2276C130.45 34.4876 130.61 34.7776 130.74 35.0876C130.74 35.1076 130.75 35.1276 130.76 35.1576C130.8 35.4076 130.86 35.6576 130.92 35.9076C130.92 35.9276 130.92 35.9576 130.92 35.9776V36.0476C130.89 36.7076 130.65 37.3476 130.23 37.8576C130.17 37.9276 130.09 37.9676 130 37.9676V37.9476Z" fill="white"/>
<path fill-rule="evenodd" clip-rule="evenodd" d="M130 37.467C130.36 37.007 130.57 36.447 130.6 35.867V35.807C130.41 35.157 130.21 34.507 130 33.857C129.79 33.207 129.47 35.517 129.4 35.807V35.867C129.43 36.447 129.64 37.017 130 37.467Z" fill="#2DB674"/>
<path fill-rule="evenodd" clip-rule="evenodd" d="M131.87 36.0406C131.51 35.9506 131.18 35.7506 130.94 35.4606C130.73 35.1406 130.62 34.7706 130.63 34.3906C130.99 34.4706 131.32 34.6806 131.56 34.9706C131.77 35.2906 131.88 35.6606 131.86 36.0406M128.25 36.0406C128.62 35.9506 128.94 35.7506 129.18 35.4606C129.39 35.1506 129.5 34.7706 129.49 34.3906C129.13 34.4806 128.8 34.6806 128.56 34.9706C128.35 35.2906 128.24 35.6606 128.26 36.0406" fill="#A3258D"/>
<path d="M67.1405 102.821V97.8309C67.1405 97.1509 67.1005 96.5709 67.0105 96.0809C66.9305 95.6109 66.7605 95.1709 66.5205 94.7609C66.2805 94.3309 65.9105 94.0209 65.4005 93.8209C64.9205 93.5909 64.3305 93.4809 63.6105 93.4809C62.8905 93.4809 62.3305 93.6209 61.8205 93.9109C61.3405 94.1909 61.0005 94.5309 60.7905 94.9309H60.7405V93.6909H57.8805V102.811H60.8705V98.2909C60.8705 97.5809 60.9905 97.0109 61.2305 96.5909C61.4705 96.1609 61.9305 95.9509 62.6105 95.9509C62.9705 95.9509 63.2705 96.0209 63.5005 96.1609C63.7405 96.3009 63.9005 96.5309 63.9505 96.8009C64.0405 97.0809 64.1005 97.3409 64.1305 97.5709C64.1605 97.7709 64.1705 98.0409 64.1705 98.3809V102.811H67.1205L67.1405 102.821ZM53.3505 92.0009C53.6805 92.3109 54.0805 92.4709 54.5605 92.4709C55.0105 92.4809 55.4405 92.3109 55.7605 92.0009C56.1205 91.6609 56.3005 91.2809 56.3005 90.8509C56.3005 90.4009 56.1205 90.0109 55.7605 89.7009C55.4505 89.3709 55.0105 89.1809 54.5605 89.1909C54.0805 89.1909 53.6805 89.3609 53.3505 89.7009C53.0305 90.0009 52.8505 90.4109 52.8605 90.8509C52.8605 91.2809 53.0205 91.6609 53.3505 92.0009ZM53.0805 102.821H56.0705V93.7009H53.0805V102.821ZM68.5705 86.4609C68.9405 86.4609 69.3005 86.6109 69.5505 86.8909C69.8505 87.1409 70.0005 87.4609 70.0005 87.8309V104.191C70.0005 104.561 69.8505 104.871 69.5505 105.131C69.3005 105.411 68.9405 105.561 68.5705 105.561H51.4305C51.0405 105.561 50.7005 105.421 50.4005 105.131C50.1405 104.891 49.9905 104.551 50.0005 104.191V87.8309C50.0005 87.4609 50.1305 87.1509 50.4005 86.8909C50.7005 86.6109 51.0405 86.4609 51.4305 86.4609H68.5705Z" fill="white"/>
<path fill-rule="evenodd" clip-rule="evenodd" d="M38.4411 53.8831C38.2711 54.0531 38.1111 54.0531 37.9411 53.8831L31.3111 47.2631C31.1411 47.0931 31.1411 46.9331 31.3111 46.7631L37.9311 40.1431C38.1011 39.9731 38.2611 39.9731 38.4311 40.1431L38.6811 40.3931C38.8511 40.5631 38.8511 40.7331 38.6811 40.9231L32.5611 47.0131L38.6811 53.1031C38.8511 53.2931 38.8511 53.4631 38.6811 53.6331L38.4311 53.8831H38.4411Z" fill="black"/>
<path fill-rule="evenodd" clip-rule="evenodd" d="M67.7509 45.2197L64.1309 41.5297C63.9409 41.3597 63.9409 41.1897 64.1309 40.9997L64.3509 40.7797C64.5209 40.5897 64.6909 40.5897 64.8809 40.7797L68.0009 43.9697L71.1209 40.7797C71.3109 40.6097 71.4809 40.6097 71.6509 40.7797L71.8709 40.9997C72.0609 41.1897 72.0609 41.3597 71.8709 41.5297L68.2509 45.2197C68.0809 45.3897 67.9209 45.3897 67.7509 45.2197ZM23.5609 40.1197C23.7309 39.9497 23.8909 39.9497 24.0609 40.1197L30.6809 46.7397C30.8509 46.9097 30.8509 47.0697 30.6809 47.2397L24.0609 53.8597C23.8909 54.0297 23.7309 54.0297 23.5609 53.8597L23.3109 53.6097C23.1409 53.4397 23.1409 53.2697 23.3109 53.0797L29.4309 46.9897L23.3109 40.8997C23.1409 40.7097 23.1409 40.5397 23.3109 40.3697L23.5609 40.1197ZM22.4409 53.8697C22.2709 54.0397 22.1109 54.0397 21.9409 53.8697L15.3209 47.2497C15.1509 47.0797 15.1509 46.9197 15.3209 46.7497L21.9409 40.1297C22.1109 39.9597 22.2709 39.9597 22.4409 40.1297L22.6909 40.3797C22.8609 40.5497 22.8609 40.7197 22.6909 40.9097L16.5709 46.9997L22.6909 53.0897C22.8609 53.2797 22.8609 53.4497 22.6909 53.6197L22.4409 53.8697Z" fill="white"/>
<path fill-rule="evenodd" clip-rule="evenodd" d="M9.72 51.1269C9.91 50.9369 10.08 50.9369 10.25 51.1269L13.87 54.7469C14.06 54.9169 14.06 55.0769 13.87 55.2469L10.25 58.8669C10.08 59.0569 9.91 59.0569 9.72 58.8669L9.5 58.6469C9.31 58.4769 9.31 58.3069 9.5 58.1169L12.12 55.5269H0.38C0.13 55.5269 0 55.4069 0 55.1469V54.8369C0 54.5869 0.12 54.4569 0.38 54.4569H12.13L9.51 51.8669C9.32 51.6769 9.32 51.4969 9.51 51.3369L9.73 51.1169L9.72 51.1269Z" fill="#217FD4"/>
<path fill-rule="evenodd" clip-rule="evenodd" d="M9.72 41.1269C9.91 40.9369 10.08 40.9369 10.25 41.1269L13.87 44.7469C14.06 44.9169 14.06 45.0769 13.87 45.2469L10.25 48.8669C10.08 49.0569 9.91 49.0569 9.72 48.8669L9.5 48.6469C9.31 48.4769 9.31 48.3069 9.5 48.1169L12.12 45.5269H0.38C0.13 45.5269 0 45.4069 0 45.1469V44.8369C0 44.5869 0.12 44.4569 0.38 44.4569H12.13L9.51 41.8669C9.32 41.6769 9.32 41.5069 9.51 41.3369L9.73 41.1169L9.72 41.1269Z" fill="white"/>
<path fill-rule="evenodd" clip-rule="evenodd" d="M77.7508 45.2231L74.1308 41.5331C73.9408 41.3631 73.9408 41.1931 74.1308 41.0031L74.3508 40.7831C74.5208 40.5931 74.6908 40.5931 74.8808 40.7831L78.0008 43.9731L81.1208 40.7831C81.3108 40.6131 81.4808 40.6131 81.6508 40.7831L81.8708 41.0031C82.0608 41.1931 82.0608 41.3631 81.8708 41.5331L78.2508 45.2231C78.0808 45.3931 77.9208 45.3931 77.7508 45.2231Z" fill="#217FD4"/>
<path fill-rule="evenodd" clip-rule="evenodd" d="M39.5611 40.1275C39.7311 39.9575 39.8911 39.9575 40.0611 40.1275L46.6811 46.7475C46.8511 46.9175 46.8511 47.0775 46.6811 47.2475L40.0611 53.8675C39.8911 54.0375 39.7311 54.0375 39.5611 53.8675L39.3111 53.6175C39.1411 53.4475 39.1411 53.2775 39.3111 53.0875L45.4311 46.9975L39.3111 40.9075C39.1411 40.7175 39.1411 40.5475 39.3111 40.3775L39.5611 40.1275Z" fill="black"/>
<path d="M83 64.5C81.75 64.5 80.69 64.94 79.81 65.81C78.94 66.68 78.5 67.75 78.5 69C78.5 69.31 78.55 69.66 78.64 70.03C78.77 70.41 78.91 70.78 79.06 71.15C79.25 71.49 79.45 71.77 79.67 71.99C79.39 72.44 79.25 72.96 79.25 73.49V73.63C77.75 72.44 77 70.89 77 68.99C77 67.33 77.58 65.93 78.73 64.77C79.92 63.58 81.34 62.99 83 62.99C84.66 62.99 86.06 63.58 87.22 64.77C88.41 65.93 89 67.33 89 68.99C89 69.64 88.88 70.29 88.67 70.91C88.48 71.22 88.2 71.49 87.83 71.71C87.45 71.9 87.1 71.99 86.75 71.99H86.33C86.64 71.61 86.91 71.15 87.13 70.58C87.38 69.99 87.51 69.46 87.51 68.99C87.51 68.39 87.39 67.8 87.13 67.26C86.92 66.72 86.6 66.22 86.19 65.81C85.78 65.4 85.28 65.08 84.74 64.87C84.2 64.62 83.6 64.49 83.01 64.49L83 64.5ZM75.27 70.31C75.15 70.44 74.97 70.5 74.75 70.5C74.55 70.5 74.35 70.44 74.19 70.31C74.06 70.15 74 69.95 74 69.75V69C74 66.53 74.88 64.42 76.62 62.67C78.4 60.89 80.53 60 83 60C85.47 60 87.58 60.89 89.33 62.67C91.11 64.42 92 66.53 92 69V69.75C92 71.19 91.48 72.42 90.45 73.45C89.42 74.48 88.19 75 86.75 75H82.25C81.85 75 81.46 74.85 81.17 74.58C80.9 74.29 80.75 73.9 80.75 73.5C80.75 73.09 80.89 72.75 81.17 72.47C81.48 72.16 81.84 72 82.25 72H83.75C84.16 72 84.5 72.16 84.78 72.47C85.09 72.75 85.25 73.09 85.25 73.5H86.75C87.78 73.5 88.66 73.14 89.37 72.42C90.12 71.67 90.49 70.78 90.49 69.75V69C90.49 66.94 89.76 65.17 88.29 63.7C86.82 62.23 85.05 61.5 82.99 61.5C80.93 61.5 79.16 62.23 77.69 63.7C76.22 65.17 75.49 66.93 75.49 69V69.75C75.49 69.96 75.41 70.17 75.26 70.31H75.27ZM74 82.5H92C92 81.25 91.56 80.19 90.69 79.31C89.82 78.44 88.75 78 87.5 78H87.27C86.96 78 86.57 78.08 86.1 78.23C85.1 78.57 84.07 78.75 83.01 78.75C81.96 78.75 80.91 78.58 79.92 78.23C79.45 78.07 79.06 78 78.75 78H78.52C77.27 78 76.21 78.44 75.33 79.31C74.46 80.18 74.02 81.25 74.02 82.5H74ZM87.5 76.5C89.16 76.5 90.56 77.09 91.72 78.28C92.91 79.44 93.5 80.84 93.5 82.5C93.5 82.91 93.34 83.25 93.03 83.53C92.77 83.83 92.4 84 92 84H74C73.59 84 73.23 83.84 72.92 83.53C72.64 83.26 72.49 82.89 72.5 82.5C72.5 80.84 73.08 79.44 74.23 78.28C75.42 77.09 76.84 76.5 78.5 76.5H78.73C79.2 76.5 79.75 76.61 80.37 76.83C81.22 77.11 82.1 77.25 82.99 77.25C83.9 77.25 84.77 77.11 85.61 76.83C86.23 76.61 86.78 76.5 87.25 76.5H87.49H87.5ZM60.03 71.58C60.34 71.27 60.5 70.91 60.5 70.5C60.5 70.09 60.34 69.75 60.03 69.47C59.77 69.17 59.4 69 59 69C58.59 69 58.23 69.16 57.92 69.47C57.64 69.74 57.49 70.11 57.5 70.5C57.5 70.91 57.64 71.27 57.92 71.58C58.23 71.86 58.59 72 59 72C59.41 72 59.75 71.86 60.03 71.58ZM61.11 68.39C61.7 68.95 62 69.65 62 70.5C62 71.35 61.7 72.06 61.11 72.66C60.55 73.22 59.84 73.5 59 73.5C58.16 73.5 57.44 73.22 56.84 72.66C56.28 72.07 56 71.35 56 70.5C56 69.65 56.28 68.95 56.84 68.39C57.4 67.81 58.19 67.49 59 67.5C59.84 67.5 60.55 67.8 61.11 68.39ZM60.5 76.69C60.5 76.32 60 76.13 59 76.13C58 76.13 57.5 76.32 57.5 76.69C57.5 77.28 57.59 78.2 57.78 79.45C58 80.7 58.2 81.69 58.39 82.4C58.55 82.46 58.75 82.49 59 82.49C59.25 82.49 59.45 82.46 59.61 82.4C59.8 81.68 59.98 80.7 60.17 79.45C60.39 78.2 60.5 77.28 60.5 76.69ZM62 76.69C62 77.41 61.89 78.44 61.67 79.78C61.45 81.09 61.23 82.14 61.01 82.92C60.82 83.64 60.15 84 58.99 84C57.83 84 57.16 83.64 56.97 82.92C56.75 82.14 56.53 81.09 56.31 79.78C56.09 78.44 55.98 77.4 55.98 76.69C55.98 75.31 56.98 74.63 58.98 74.63C60.98 74.63 61.98 75.32 61.98 76.69H62ZM51.55 63.1C53.61 61.04 56.1 60.01 59 60.01C61.9 60.01 64.38 61.04 66.41 63.1C68.47 65.13 69.5 67.6 69.5 70.51C69.5 72.42 69.03 74.17 68.09 75.76C67.21 77.29 65.95 78.57 64.43 79.46C64.35 79.52 64.23 79.52 64.15 79.46C64.06 79.4 64.01 79.32 64.01 79.23C64.07 78.76 64.12 78.35 64.15 78.01C64.18 77.92 64.23 77.84 64.29 77.78C65.43 76.96 66.36 75.88 67.01 74.64C67.66 73.36 68 71.95 67.99 70.52C67.99 68.02 67.08 65.88 65.27 64.1C63.49 62.32 61.33 61.46 58.8 61.52C56.36 61.58 54.28 62.49 52.56 64.24C50.84 65.96 49.98 68.04 49.98 70.47C49.98 71.9 50.31 73.32 50.96 74.59C51.6 75.85 52.53 76.95 53.68 77.78C53.74 77.84 53.79 77.92 53.82 78.01C53.85 78.35 53.9 78.76 53.96 79.23C53.96 79.32 53.91 79.4 53.82 79.46C53.74 79.52 53.62 79.52 53.54 79.46C52.01 78.55 50.77 77.3 49.84 75.71C48.93 74.12 48.48 72.38 48.48 70.51C48.48 67.6 49.5 65.13 51.53 63.1H51.55ZM63.78 74.68C63.62 74.42 63.45 74.17 63.27 73.93C63.18 73.84 63.18 73.73 63.27 73.6C63.91 72.7 64.26 71.61 64.25 70.51C64.25 69.01 63.7 67.74 62.61 66.71C61.55 65.68 60.28 65.19 58.81 65.26C57.43 65.32 56.26 65.84 55.29 66.81C54.32 67.75 53.81 68.9 53.74 70.28C53.67 71.47 54.02 72.65 54.72 73.61C54.81 73.73 54.81 73.84 54.72 73.94C54.53 74.19 54.36 74.44 54.21 74.69C54.16 74.78 54.07 74.84 53.97 74.88C53.88 74.88 53.8 74.83 53.74 74.74C52.74 73.52 52.24 72.12 52.24 70.52C52.24 68.64 52.9 67.05 54.21 65.74C55.55 64.43 57.16 63.77 59.04 63.77C60.92 63.77 62.42 64.43 63.73 65.74C65.04 67.02 65.72 68.57 65.75 70.38C65.78 72 65.28 73.46 64.25 74.74C64.19 74.83 64.11 74.88 64.02 74.88C63.92 74.85 63.84 74.78 63.78 74.69V74.68ZM37.36 71.57V71.28C37.36 70.99 37.51 70.84 37.8 70.84H42.81C43.11 70.84 43.25 70.99 43.25 71.28V71.57C43.25 71.86 43.1 72.01 42.81 72.01H37.8C37.51 72.01 37.36 71.86 37.36 71.57ZM37.36 69.24V68.95C37.36 68.66 37.51 68.51 37.8 68.51H42.81C43.11 68.51 43.25 68.66 43.25 68.95V69.24C43.25 69.53 43.1 69.68 42.81 69.68H37.8C37.51 69.68 37.36 69.53 37.36 69.24ZM37.36 73.91V73.62C37.36 73.33 37.51 73.18 37.8 73.18H42.81C43.11 73.18 43.25 73.33 43.25 73.62V73.91C43.25 74.2 43.1 74.35 42.81 74.35H37.8C37.51 74.35 37.36 74.2 37.36 73.91ZM37.36 76.24V75.95C37.36 75.66 37.51 75.51 37.8 75.51H42.81C43.11 75.51 43.25 75.66 43.25 75.95V76.24C43.25 76.53 43.1 76.68 42.81 76.68H37.8C37.51 76.68 37.36 76.53 37.36 76.24ZM29.11 76.24V75.95C29.11 75.66 29.26 75.51 29.55 75.51H35.74C36.03 75.51 36.18 75.66 36.18 75.95V76.24C36.18 76.53 36.03 76.68 35.74 76.68H29.55C29.25 76.68 29.11 76.53 29.11 76.24ZM30.29 73.18H35V68.51H30.29V73.18ZM29.55 74.35C29.25 74.35 29.11 74.2 29.11 73.91V67.78C29.11 67.49 29.26 67.34 29.55 67.34H35.74C36.03 67.34 36.18 67.49 36.18 67.78V73.9C36.18 74.19 36.03 74.34 35.74 74.34H29.55V74.35ZM44.43 77.85V66.18H27.93V77.26C27.93 77.45 27.89 77.65 27.82 77.84H44.43V77.85ZM25.57 77.27C25.57 77.44 25.62 77.59 25.72 77.71C25.85 77.81 26 77.86 26.16 77.86C26.31 77.86 26.46 77.82 26.57 77.71C26.69 77.6 26.76 77.44 26.75 77.27V67.35H25.57V77.27ZM44.72 65.02C44.97 65.02 45.17 65.1 45.35 65.28C45.52 65.44 45.61 65.67 45.61 65.9V78.15C45.61 78.38 45.52 78.61 45.35 78.77C45.19 78.94 44.96 79.03 44.72 79.02H26.16C25.67 79.02 25.25 78.85 24.91 78.51C24.57 78.19 24.39 77.74 24.39 77.27V67.06C24.39 66.83 24.48 66.6 24.65 66.44C24.81 66.27 25.04 66.18 25.28 66.18H26.75V65.89C26.75 65.66 26.84 65.43 27.01 65.27C27.17 65.1 27.4 65.01 27.64 65.01H44.73L44.72 65.02ZM19.44 82.52C19.28 81.52 19.28 80.52 19.44 79.52H4.25C3.31 79.52 2.64 79.77 2.23 80.27C1.85 80.77 1.85 81.27 2.23 81.77C2.64 82.27 3.31 82.52 4.25 82.52H19.44ZM2 78.77C2.66 78.27 3.41 78.02 4.25 78.02H5V61.52H4.25C3.65 61.51 3.07 61.75 2.66 62.18C2.23 62.6 1.99 63.18 2 63.77V78.77ZM6.5 78.02H20V61.52H6.5V78.02ZM20.8 82.52H20.94C21.32 82.52 21.5 82.71 21.5 83.08V83.45C21.5 83.83 21.31 84.01 20.94 84.01H4.25C3.22 84.01 2.33 83.63 1.58 82.89C0.86 82.17 0.5 81.3 0.5 80.27V63.77C0.5 62.74 0.86 61.86 1.58 61.15C2.33 60.4 3.22 60.03 4.25 60.03H20.37C20.68 60.03 20.95 60.14 21.17 60.36C21.39 60.58 21.5 60.84 21.5 61.16V78.41C21.5 78.91 21.27 79.25 20.8 79.44C20.58 80.46 20.58 81.51 20.8 82.53V82.52ZM17.75 69.96C17.75 70.33 17.56 70.52 17.19 70.52H9.32C8.95 70.52 8.76 70.33 8.76 69.96V69.59C8.76 69.21 8.95 69.03 9.32 69.03H17.19C17.57 69.03 17.75 69.22 17.75 69.59V69.96ZM17.19 67.52H9.31C8.93 67.52 8.75 67.33 8.75 66.96V66.59C8.75 66.21 8.94 66.03 9.31 66.03H17.18C17.56 66.03 17.74 66.22 17.74 66.59V66.96C17.74 67.34 17.55 67.52 17.18 67.52H17.19Z" fill="#FDCA33"/>
<path fill-rule="evenodd" clip-rule="evenodd" d="M45.52 91.1334C45.55 91.2534 45.57 91.4634 45.57 91.7434C45.57 93.4034 45.26 95.0534 44.63 96.7134C44 98.3534 43.09 99.8734 41.96 101.213C40.84 102.553 39.37 103.653 37.55 104.493C35.74 105.333 33.74 105.763 31.55 105.763C28.8 105.763 26.28 105.033 24 103.563C24.34 103.593 24.73 103.613 25.17 103.613C27.45 103.613 29.5 102.913 31.31 101.503C30.22 101.503 29.25 101.193 28.4 100.563C27.61 99.9334 27.02 99.0834 26.71 98.1234C27.02 98.1534 27.32 98.1734 27.6 98.1734C28.04 98.1734 28.48 98.1234 28.91 98.0334C28.17 97.8834 27.48 97.5634 26.89 97.0934C26.31 96.6334 25.83 96.0634 25.48 95.4034C25.14 94.7234 24.96 93.9634 24.96 93.2034V93.1134C25.63 93.5134 26.39 93.7434 27.16 93.7734C25.69 92.7734 24.96 91.3934 24.96 89.6534C24.96 88.7734 25.2 87.9534 25.66 87.1734C26.87 88.6934 28.39 89.9434 30.11 90.8334C31.87 91.7334 33.81 92.2434 35.78 92.3334C35.72 91.9634 35.69 91.5834 35.69 91.2134C35.69 89.8734 36.16 88.7134 37.1 87.7434C38.07 86.7734 39.22 86.2934 40.57 86.2934C42.01 86.2934 43.21 86.8134 44.18 87.8434C45.29 87.6334 46.35 87.2334 47.32 86.6734C46.94 87.8334 46.23 88.7334 45.16 89.3934C46.1 89.2734 47.04 89.0034 47.97 88.5934C47.28 89.5934 46.45 90.4534 45.49 91.1734L45.52 91.1334ZM15.35 88.6634C14.83 88.6634 14.41 88.7534 14.09 88.9234C13.8 89.0934 13.61 89.3134 13.53 89.5734C13.44 89.8334 13.4 90.1634 13.4 90.5634V93.2734H17.08L16.56 97.1834H13.4V107.023H9.33V97.1834H6V93.2734H9.33V90.1834C9.33 88.5534 9.79 87.2934 10.71 86.4034C11.63 85.4834 12.86 85.0234 14.39 85.0234C15.63 85.0234 16.64 85.0834 17.42 85.1934V88.6734H15.34L15.35 88.6634Z" fill="white"/>
<path d="M81.6706 99.4166L87.6306 95.9966L81.6706 92.6166V99.4066V99.4166ZM94.9206 90.4966C95.0006 90.8266 95.0706 91.2466 95.1306 91.7466C95.2106 92.2466 95.2706 92.7466 95.3006 93.2466C95.3306 93.7166 95.3406 94.1666 95.3406 94.5766C95.3706 94.9966 95.3806 95.3366 95.3806 95.6166V95.9966C95.3806 98.4966 95.2306 100.347 94.9206 101.537C94.7806 102.007 94.5206 102.437 94.1706 102.787C93.8106 103.147 93.3706 103.407 92.8806 103.537C92.3506 103.677 91.3506 103.787 89.8806 103.867C88.4106 103.927 87.0606 103.967 85.8406 103.987H84.0106C79.2606 103.987 76.3006 103.837 75.1306 103.527C74.0506 103.217 73.3706 102.557 73.0906 101.527C72.9506 100.997 72.8406 100.277 72.7606 99.3566C72.7006 98.4166 72.6606 97.6166 72.6406 96.9766V95.9766C72.6406 93.5066 72.7906 91.6666 73.1006 90.4766C73.2406 89.9766 73.4906 89.5466 73.8506 89.1866C74.2106 88.8266 74.6506 88.5666 75.1406 88.4366C75.6706 88.2966 76.6706 88.1966 78.1406 88.1466C79.6106 88.0666 80.9606 88.0066 82.1806 87.9766H84.0106C88.7606 87.9766 91.7206 88.1266 92.8906 88.4366C93.8806 88.7066 94.6606 89.4866 94.9306 90.4766L94.9206 90.4966Z" fill="white"/>
<path fill-rule="evenodd" clip-rule="evenodd" d="M56.1112 47.9769L61.9112 53.7669C62.0612 53.9269 62.0612 54.0969 61.9112 54.2769L60.8313 55.3569C60.6413 55.5069 60.4712 55.5069 60.3212 55.3569L59.3412 54.3269L54.5312 49.5569L48.7413 55.3569C48.5813 55.5069 48.4112 55.5069 48.2312 55.3569L47.1512 54.2769C46.9913 54.0869 46.9913 53.9169 47.1512 53.7669L52.9512 47.9769L47.1512 42.1769C46.9913 42.0169 46.9913 41.8469 47.1512 41.6669L48.2312 40.5969C48.4212 40.4469 48.5913 40.4469 48.7413 40.5969L54.5312 46.3869L60.3313 40.5969C60.4913 40.4469 60.6612 40.4469 60.8412 40.5969L61.9212 41.6669C62.0712 41.8569 62.0712 42.0269 61.9212 42.1769L60.8912 43.1569L56.1212 47.9669L56.1112 47.9769Z" fill="#0C2740"/>
<path fill-rule="evenodd" clip-rule="evenodd" d="M83.9708 40H92.0308C92.3008 40 92.4908 40.14 92.5908 40.41C92.6908 40.66 92.6508 40.88 92.4708 41.07L88.4408 45.1C88.3308 45.22 88.1708 45.29 88.0008 45.29C87.8308 45.29 87.6808 45.22 87.5608 45.1L83.5308 41.07C83.3408 40.88 83.3008 40.66 83.4008 40.41C83.5008 40.14 83.6908 40 83.9608 40H83.9708Z" fill="#58585B"/>
<path fill-rule="evenodd" clip-rule="evenodd" d="M129.331 42.1813C129.521 41.9813 129.721 41.9813 129.931 42.1813L130.911 43.2812C131.121 43.4812 131.121 43.7012 130.911 43.9212L120.361 55.2812C120.171 55.4812 119.971 55.4812 119.761 55.2812L115.081 50.2112C114.871 50.0112 114.871 49.7912 115.081 49.5712L116.061 48.5112C116.271 48.2812 116.471 48.2812 116.661 48.5112L120.071 52.1812L129.321 42.1912L129.331 42.1813Z" fill="#217FD4"/>
<path d="M136.011 54.2413C137.391 55.6013 139.061 56.2812 141.001 56.2812C142.941 56.2812 144.601 55.6013 145.961 54.2413C147.341 52.8613 148.031 51.1913 148.031 49.2513C148.031 47.3113 147.341 45.6513 145.961 44.2913C144.601 42.9113 142.951 42.2213 141.001 42.2213C139.051 42.2213 137.391 42.9113 136.011 44.2913C134.651 45.6513 133.971 47.3013 133.971 49.2513C133.971 51.2013 134.651 52.8613 136.011 54.2413ZM134.821 43.1012C136.531 41.3912 138.591 40.5312 141.011 40.5312C143.431 40.5312 145.471 41.3912 147.161 43.1012C148.871 44.7912 149.731 46.8413 149.731 49.2513C149.731 51.6613 148.871 53.7312 147.161 55.4412C145.471 57.1312 143.421 57.9713 141.011 57.9713C138.601 57.9713 136.531 57.1312 134.821 55.4412C133.131 53.7312 132.291 51.6713 132.291 49.2513C132.291 46.8313 133.131 44.7812 134.821 43.1012Z" fill="#E0E0E0"/>
<path fill-rule="evenodd" clip-rule="evenodd" d="M104.001 48.2825V41.2325C104.001 40.9925 104.111 40.8325 104.331 40.7425C104.571 40.6525 104.771 40.6925 104.931 40.8525L108.461 44.3825C108.571 44.4925 108.621 44.6225 108.621 44.7625C108.621 44.9025 108.561 45.0425 108.461 45.1425L104.931 48.6725C104.771 48.8325 104.571 48.8725 104.331 48.7825C104.121 48.7125 103.991 48.5125 104.001 48.2925V48.2825Z" fill="#217FD4"/>
<path opacity="0.35" fill-rule="evenodd" clip-rule="evenodd" d="M109.001 48.2825V41.2325C109.001 40.9925 109.111 40.8325 109.331 40.7425C109.571 40.6525 109.771 40.6925 109.931 40.8525L113.461 44.3825C113.571 44.4925 113.621 44.6225 113.621 44.7625C113.621 44.9025 113.561 45.0425 113.461 45.1425L109.931 48.6725C109.771 48.8325 109.571 48.8725 109.331 48.7825C109.121 48.7125 108.991 48.5125 109.001 48.2925V48.2825Z" fill="#58585B"/>
<path d="M100.88 50.7V50.92C100.88 51.14 100.77 51.25 100.55 51.25H95.9603C95.7403 51.25 95.6303 51.14 95.6303 50.92V50.7C95.6303 50.48 95.7403 50.37 95.9603 50.37H100.55C100.77 50.37 100.88 50.48 100.88 50.7ZM100.88 48.95V49.17C100.88 49.39 100.77 49.5 100.55 49.5H95.9603C95.7403 49.5 95.6303 49.39 95.6303 49.17V48.95C95.6303 48.73 95.7403 48.62 95.9603 48.62H100.55C100.77 48.62 100.88 48.73 100.88 48.95ZM100.88 47.2V47.42C100.88 47.64 100.77 47.75 100.55 47.75H95.9603C95.7403 47.75 95.6303 47.64 95.6303 47.42V47.2C95.6303 46.98 95.7403 46.87 95.9603 46.87H100.55C100.77 46.87 100.88 46.98 100.88 47.2ZM102.19 53.87C102.31 53.87 102.42 53.82 102.49 53.73C102.58 53.66 102.63 53.55 102.63 53.43V45.12H99.7903C99.6203 45.12 99.4503 45.05 99.3303 44.93C99.2003 44.81 99.1403 44.64 99.1403 44.47V41.63H94.3303C94.2103 41.63 94.0903 41.68 94.0003 41.77C93.9203 41.85 93.8803 41.96 93.8903 42.07V53.45C93.8903 53.58 93.9303 53.68 94.0003 53.75C94.0903 53.84 94.2003 53.89 94.3303 53.89H102.21L102.19 53.87ZM102.49 44.05L100.19 41.75C100.13 41.69 100.07 41.65 100 41.61V44.23H102.62C102.58 44.16 102.54 44.09 102.48 44.04L102.49 44.05ZM103.12 43.42C103.38 43.67 103.5 43.99 103.5 44.35V53.43C103.5 53.79 103.37 54.1 103.12 54.36C102.88 54.61 102.54 54.75 102.19 54.74H94.3203C93.9503 54.74 93.6403 54.61 93.3903 54.36C93.1403 54.12 93.0003 53.78 93.0103 53.43V42.06C93.0103 41.69 93.1403 41.38 93.3903 41.13C93.6403 40.87 93.9503 40.75 94.3203 40.75H99.9003C100.26 40.75 100.57 40.88 100.83 41.13L103.13 43.43L103.12 43.42Z" fill="#58585B"/>
<path fill-rule="evenodd" clip-rule="evenodd" d="M165.771 40.9778C165.961 41.1678 165.951 41.3678 165.731 41.5778L158.311 48.9978C158.121 49.1878 157.921 49.1878 157.711 48.9978L150.291 41.5778C150.101 41.3678 150.101 41.1678 150.291 40.9778L150.571 40.7278C150.761 40.5178 150.951 40.5178 151.131 40.7278L158.021 47.5878L164.881 40.7278C165.091 40.5178 165.291 40.5178 165.481 40.7278L165.761 40.9778H165.771Z" fill="#333333"/>
<path fill-rule="evenodd" clip-rule="evenodd" d="M165.771 50.9778C165.961 51.1678 165.951 51.3678 165.731 51.5778L158.311 58.9978C158.121 59.1878 157.921 59.1878 157.711 58.9978L150.291 51.5778C150.101 51.3678 150.101 51.1678 150.291 50.9778L150.571 50.7278C150.761 50.5178 150.951 50.5178 151.131 50.7278L158.021 57.5878L164.881 50.7278C165.091 50.5178 165.291 50.5178 165.481 50.7278L165.761 50.9778H165.771Z" fill="white"/>
<path d="M175.22 44.8578C175.22 46.0278 174.8 47.0278 173.97 47.8478C173.15 48.6678 172.16 49.0778 171 49.0778C169.84 49.0778 168.83 48.6578 168.01 47.8278C167.19 47.0078 166.78 46.0178 166.78 44.8578C166.78 43.6978 167.19 42.6878 168.01 41.8678C168.84 41.0478 169.84 40.6378 171 40.6378C172.16 40.6378 173.17 41.0478 173.99 41.8678C174.81 42.6978 175.22 43.6978 175.22 44.8578ZM174.42 48.2778C175.37 47.3378 175.85 46.1978 175.85 44.8578C175.85 43.5178 175.37 42.3678 174.42 41.4178C173.47 40.4678 172.34 40.0078 171 40.0078C169.66 40.0078 168.51 40.4778 167.56 41.4178C166.62 42.3678 166.15 43.5178 166.15 44.8578C166.15 46.1978 166.62 47.3378 167.56 48.2778C168.51 49.2278 169.66 49.7078 171 49.7078C172.34 49.7078 173.48 49.2278 174.42 48.2778ZM168.74 44.5078C168.58 44.5078 168.51 44.5878 168.51 44.7378V44.9678C168.51 45.1278 168.59 45.2078 168.74 45.2078H173.27C173.43 45.2078 173.5 45.1278 173.5 44.9678V44.7378C173.5 44.5778 173.42 44.5078 173.27 44.5078H168.74Z" fill="#333333"/>
<path d="M175.22 54.8578C175.22 56.0278 174.8 57.0278 173.97 57.8478C173.15 58.6678 172.16 59.0778 171 59.0778C169.84 59.0778 168.83 58.6578 168.01 57.8278C167.19 57.0078 166.78 56.0178 166.78 54.8578C166.78 53.6978 167.19 52.6878 168.01 51.8678C168.84 51.0478 169.84 50.6378 171 50.6378C172.16 50.6378 173.17 51.0478 173.99 51.8678C174.81 52.6978 175.22 53.6978 175.22 54.8578ZM174.42 58.2778C175.37 57.3378 175.85 56.1978 175.85 54.8578C175.85 53.5178 175.37 52.3678 174.42 51.4178C173.48 50.4778 172.34 50.0078 171 50.0078C169.66 50.0078 168.51 50.4778 167.56 51.4178C166.62 52.3678 166.15 53.5178 166.15 54.8578C166.15 56.1978 166.62 57.3378 167.56 58.2778C168.51 59.2278 169.66 59.7078 171 59.7078C172.34 59.7078 173.48 59.2278 174.42 58.2778ZM168.74 54.5078C168.58 54.5078 168.51 54.5878 168.51 54.7378V54.9678C168.51 55.1278 168.59 55.2078 168.74 55.2078H173.27C173.43 55.2078 173.5 55.1278 173.5 54.9678V54.7378C173.5 54.5778 173.42 54.5078 173.27 54.5078H168.74Z" fill="white"/>
<path d="M185.22 44.8578C185.22 46.0278 184.8 47.0278 183.97 47.8478C183.15 48.6678 182.16 49.0778 181 49.0778C179.84 49.0778 178.83 48.6578 178.01 47.8278C177.19 47.0078 176.78 46.0178 176.78 44.8578C176.78 43.6978 177.19 42.6878 178.01 41.8678C178.84 41.0478 179.84 40.6378 181 40.6378C182.16 40.6378 183.17 41.0478 183.99 41.8678C184.81 42.6978 185.22 43.6978 185.22 44.8578ZM184.42 48.2778C185.37 47.3378 185.85 46.1978 185.85 44.8578C185.85 43.5178 185.37 42.3678 184.42 41.4178C183.47 40.4678 182.34 40.0078 181 40.0078C179.66 40.0078 178.51 40.4778 177.56 41.4178C176.62 42.3678 176.15 43.5178 176.15 44.8578C176.15 46.1978 176.62 47.3378 177.56 48.2778C178.51 49.2278 179.66 49.7078 181 49.7078C182.34 49.7078 183.48 49.2278 184.42 48.2778ZM183.5 44.9778V44.7478C183.5 44.5878 183.42 44.5178 183.27 44.5178H181.36V42.6078C181.36 42.4478 181.28 42.3778 181.12 42.3778H180.89C180.73 42.3778 180.65 42.4578 180.65 42.6078V44.5178H178.74C178.58 44.5178 178.51 44.5978 178.51 44.7478V44.9778C178.51 45.1378 178.59 45.2178 178.74 45.2178H180.65V47.1278C180.65 47.2878 180.73 47.3578 180.89 47.3578H181.12C181.28 47.3578 181.36 47.2778 181.36 47.1278V45.2178H183.27C183.43 45.2178 183.5 45.1378 183.5 44.9778Z" fill="#333333"/>
<path d="M185.22 54.8578C185.22 56.0278 184.8 57.0278 183.97 57.8478C183.15 58.6678 182.16 59.0778 181 59.0778C179.84 59.0778 178.83 58.6578 178.01 57.8278C177.19 57.0078 176.78 56.0178 176.78 54.8578C176.78 53.6978 177.19 52.6878 178.01 51.8678C178.84 51.0478 179.84 50.6378 181 50.6378C182.16 50.6378 183.17 51.0478 183.99 51.8678C184.81 52.6978 185.22 53.6978 185.22 54.8578ZM184.42 58.2778C185.37 57.3378 185.85 56.1978 185.85 54.8578C185.85 53.5178 185.37 52.3678 184.42 51.4178C183.48 50.4778 182.34 50.0078 181 50.0078C179.66 50.0078 178.51 50.4778 177.56 51.4178C176.62 52.3678 176.15 53.5178 176.15 54.8578C176.15 56.1978 176.62 57.3378 177.56 58.2778C178.51 59.2278 179.66 59.7078 181 59.7078C182.34 59.7078 183.48 59.2278 184.42 58.2778ZM183.5 54.9778V54.7478C183.5 54.5878 183.42 54.5178 183.27 54.5178H181.36V52.6078C181.36 52.4478 181.28 52.3778 181.12 52.3778H180.89C180.73 52.3778 180.65 52.4578 180.65 52.6078V54.5178H178.74C178.58 54.5178 178.51 54.5978 178.51 54.7478V54.9778C178.51 55.1378 178.59 55.2178 178.74 55.2178H180.65V57.1278C180.65 57.2878 180.73 57.3578 180.89 57.3578H181.12C181.28 57.3578 181.36 57.2778 181.36 57.1278V55.2178H183.27C183.43 55.2178 183.5 55.1378 183.5 54.9778Z" fill="white"/>
<path fill-rule="evenodd" clip-rule="evenodd" d="M199.71 59.6578C199.91 59.6578 200 59.5578 200 59.3678V58.1978C200 57.9978 199.9 57.9078 199.71 57.9078H186.29C186.09 57.9078 186 58.0078 186 58.1978V59.3678C186 59.5578 186.1 59.6578 186.29 59.6578H199.71ZM199.71 47.8778C199.91 47.8778 200 47.7778 200 47.5878V46.4178C200 46.2278 199.9 46.1278 199.71 46.1278H193.88V40.2978C193.88 40.1078 193.78 40.0078 193.59 40.0078H192.42C192.22 40.0078 192.13 40.1078 192.13 40.2978V46.1278H186.3C186.1 46.1278 186.01 46.2278 186.01 46.4178V47.5878C186.01 47.7778 186.11 47.8778 186.3 47.8778H192.13V53.7078C192.13 53.8978 192.23 53.9978 192.42 53.9978H193.59C193.79 53.9978 193.88 53.8978 193.88 53.7078V47.8778H199.71Z" fill="#0C2740"/>
</g>
</g>
<path d="M149.96 37.7375H140.62C140.33 37.7375 140.15 37.4275 140.3 37.1875L144.97 29.1875L149.64 21.1875C149.78 20.9375 150.14 20.9375 150.29 21.1875L154.96 29.1875L159.63 37.1875C159.77 37.4375 159.59 37.7375 159.31 37.7375H149.97H149.96Z" fill="#1F419A"/>
<path d="M149.961 36.1928C147.811 36.1928 146.011 34.6528 145.671 32.5228C145.671 32.4728 145.651 32.4228 145.641 32.3728V32.3028C145.641 32.3028 145.621 32.2828 145.621 32.2728V31.5328C145.621 31.5328 145.621 31.5128 145.621 31.4928C145.641 31.4128 145.651 31.3328 145.671 31.2528C145.701 31.0628 145.741 30.8728 145.801 30.6828C145.901 30.4128 146.021 30.1628 146.131 29.9128C146.171 29.8328 146.211 29.7428 146.251 29.6628C146.291 29.5828 146.361 29.5128 146.461 29.4528C146.491 29.4428 146.521 29.4328 146.551 29.4328C146.591 29.4328 146.621 29.4428 146.651 29.4628C146.711 29.5028 146.731 29.5628 146.721 29.6328C146.621 30.3228 146.641 30.8528 146.781 31.3228C146.951 31.8728 147.241 32.3528 147.651 32.7428C148.071 33.1428 148.571 33.4128 149.131 33.5528C149.401 33.6228 149.671 33.6528 149.941 33.6528C150.231 33.6528 150.531 33.6128 150.821 33.5328C151.381 33.3828 151.871 33.1028 152.281 32.6928C152.681 32.2928 152.971 31.8028 153.121 31.2528C153.261 30.7628 153.251 30.2128 153.121 29.5928C153.111 29.5428 153.121 29.4928 153.151 29.4528C153.181 29.4128 153.221 29.3828 153.271 29.3828H153.351C153.351 29.3828 153.361 29.3828 153.371 29.3828C153.431 29.3828 153.481 29.4128 153.521 29.4628L153.561 29.5128C153.561 29.5128 153.621 29.6028 153.651 29.6428C154.381 30.7928 154.511 32.1828 154.021 33.4528C153.521 34.7428 152.461 35.6828 151.121 36.0528C150.741 36.1528 150.351 36.2028 149.961 36.2028V36.1928Z" fill="#F9F9FA"/>
<path d="M153.381 29.5397C153.421 29.5997 153.461 29.6597 153.501 29.7097C154.981 32.0497 153.761 35.1297 151.071 35.8497C150.701 35.9497 150.321 35.9997 149.961 35.9997C147.961 35.9997 146.181 34.5597 145.841 32.4797C145.831 32.3997 145.811 32.3297 145.801 32.2497V31.5097C145.861 31.2497 145.881 30.9797 145.971 30.7297C146.091 30.3797 146.261 30.0597 146.421 29.7197C146.441 29.6697 146.491 29.6297 146.551 29.5897C146.461 30.1897 146.441 30.7797 146.621 31.3597C146.791 31.9397 147.101 32.4397 147.541 32.8597C147.981 33.2797 148.511 33.5597 149.101 33.7097C149.391 33.7797 149.671 33.8197 149.961 33.8197C150.271 33.8197 150.581 33.7797 150.881 33.6997C151.471 33.5397 151.991 33.2497 152.421 32.8097C152.851 32.3797 153.141 31.8797 153.311 31.2897C153.471 30.7097 153.441 30.1297 153.311 29.5397C153.341 29.5397 153.361 29.5397 153.391 29.5397M153.391 29.1897C153.391 29.1897 153.361 29.1897 153.351 29.1897H153.271C153.171 29.2097 153.081 29.2597 153.021 29.3397C152.961 29.4197 152.941 29.5197 152.961 29.6197C153.091 30.2297 153.091 30.7297 152.961 31.1997C152.811 31.7297 152.551 32.1797 152.171 32.5597C151.781 32.9497 151.321 33.2097 150.791 33.3497C150.511 33.4197 150.241 33.4597 149.961 33.4597C149.701 33.4597 149.451 33.4297 149.191 33.3597C148.661 33.2297 148.191 32.9697 147.791 32.5997C147.401 32.2297 147.121 31.7797 146.961 31.2597C146.831 30.8097 146.811 30.3097 146.901 29.6397C146.921 29.5097 146.861 29.3697 146.751 29.2997C146.691 29.2597 146.621 29.2397 146.551 29.2397C146.491 29.2397 146.431 29.2497 146.381 29.2797C146.241 29.3597 146.151 29.4497 146.101 29.5697C146.061 29.6497 146.021 29.7397 145.981 29.8197C145.861 30.0697 145.741 30.3297 145.641 30.6097C145.571 30.8097 145.531 31.0097 145.501 31.2097C145.491 31.2897 145.471 31.3697 145.461 31.4397C145.461 31.4597 145.461 31.4897 145.461 31.5097V32.2497C145.461 32.2497 145.461 32.2897 145.461 32.3197V32.3897C145.461 32.3897 145.491 32.4897 145.501 32.5297C145.851 34.7397 147.731 36.3397 149.971 36.3397C150.371 36.3397 150.781 36.2897 151.171 36.1797C152.571 35.7997 153.671 34.8197 154.191 33.4797C154.701 32.1597 154.561 30.7097 153.801 29.5097C153.771 29.4697 153.741 29.4197 153.711 29.3797C153.701 29.3597 153.691 29.3397 153.671 29.3297C153.601 29.2297 153.491 29.1797 153.381 29.1797L153.391 29.1897Z" fill="#B1C553"/>
<path d="M149.99 33.4888C149.9 33.4888 149.81 33.4488 149.73 33.3888C149.56 33.2488 149.55 33.0188 149.7 32.8188C149.7 32.8088 149.72 32.7888 149.72 32.7888C149.66 32.4788 149.61 32.1688 149.54 31.8388V31.7987C149.24 31.9987 148.96 32.1888 148.68 32.3888C148.66 32.6388 148.51 32.7987 148.29 32.7987H148.27C148.05 32.7887 147.9 32.6387 147.89 32.4187C147.88 32.1987 148.05 32.0287 148.3 32.0087C148.5 31.7187 148.71 31.4188 148.91 31.1188V31.0988H148.87C148.51 31.0288 148.16 30.9588 147.81 30.8988C147.81 30.8988 147.8 30.8988 147.79 30.9088C147.7 30.9788 147.6 31.0188 147.5 31.0188C147.39 31.0188 147.29 30.9688 147.22 30.8888C147.08 30.7288 147.08 30.5388 147.21 30.3688C147.28 30.2788 147.39 30.2288 147.5 30.2288C147.59 30.2288 147.69 30.2688 147.78 30.3288C147.8 30.3388 147.82 30.3488 147.82 30.3488C148.15 30.2888 148.47 30.2288 148.81 30.1688H148.87C148.7 29.9088 148.53 29.6588 148.36 29.4088L148.33 29.3688C148.27 29.2788 148.27 29.2788 148.24 29.2788H148.2C148.11 29.2788 148.02 29.2388 147.96 29.1688C147.89 29.0888 147.85 28.9688 147.86 28.8588C147.88 28.6488 148.04 28.5088 148.25 28.4988C148.37 28.4988 148.48 28.5388 148.55 28.6188C148.61 28.6888 148.65 28.7787 148.64 28.8787C148.64 28.8787 148.663 28.9054 148.71 28.9587C148.95 29.1187 149.19 29.2788 149.43 29.4488L149.5 29.4888V29.4088C149.57 29.1388 149.62 28.8788 149.67 28.6188C149.67 28.5988 149.67 28.5788 149.68 28.5588C149.7 28.4388 149.71 28.3988 149.65 28.3388C149.56 28.2388 149.55 28.1388 149.56 28.0788C149.58 27.9588 149.66 27.8488 149.82 27.7488C149.85 27.7288 149.88 27.7188 149.91 27.7188H150.04C150.04 27.7188 150.13 27.7388 150.16 27.7688C150.4 27.9988 150.42 28.1588 150.22 28.4088C150.29 28.7788 150.36 29.1588 150.43 29.5388L150.46 29.5188C150.77 29.3088 151.07 29.1088 151.36 28.8988C151.36 28.8988 151.36 28.8887 151.36 28.8787C151.38 28.6387 151.54 28.4888 151.75 28.4888H151.78C151.99 28.4988 152.13 28.6388 152.15 28.8488C152.17 29.0688 152.01 29.2488 151.77 29.2788C151.76 29.2788 151.75 29.2788 151.74 29.2788C151.55 29.5488 151.36 29.8288 151.17 30.1088L151.15 30.1388H151.18C151.51 30.2088 151.84 30.2688 152.16 30.3188C152.16 30.3188 152.17 30.3188 152.18 30.3088C152.27 30.2388 152.36 30.1988 152.46 30.1988C152.53 30.1988 152.63 30.2188 152.74 30.3188C152.9 30.4688 152.9 30.6888 152.75 30.8588C152.68 30.9388 152.58 30.9888 152.47 30.9888C152.37 30.9888 152.27 30.9487 152.18 30.8787C152.18 30.8787 152.17 30.8688 152.16 30.8688C151.81 30.9288 151.45 30.9988 151.11 31.0688V31.0888C151.33 31.3988 151.54 31.6988 151.75 31.9988C152 32.0088 152.17 32.1888 152.16 32.4088C152.15 32.6288 152.01 32.7787 151.79 32.7987H151.76C151.55 32.7987 151.39 32.6388 151.37 32.3988C151.37 32.3988 151.37 32.3888 151.37 32.3788C151.07 32.1688 150.77 31.9588 150.45 31.7488H150.43C150.41 31.8588 150.38 31.9788 150.36 32.0888L150.34 32.2087C150.3 32.3887 150.27 32.5888 150.24 32.7688C150.24 32.7688 150.24 32.7888 150.26 32.8088C150.41 33.0088 150.4 33.2388 150.23 33.3788C150.15 33.4488 150.06 33.4788 149.97 33.4788L149.99 33.4888Z" fill="#F9F9FA"/>
<path d="M150.07 27.8969C150.25 28.0669 150.25 28.1269 150.11 28.3169C150.09 28.3469 150.07 28.3869 150.08 28.4169C150.17 28.8869 150.26 29.3469 150.35 29.8369C150.76 29.5569 151.15 29.2969 151.54 29.0269C151.57 29.0069 151.58 28.9469 151.58 28.8969C151.59 28.7569 151.67 28.6669 151.79 28.6669H151.81C151.94 28.6669 152 28.7469 152.02 28.8669C152.03 28.9869 151.93 29.0869 151.79 29.1069C151.74 29.1069 151.68 29.1269 151.65 29.1669C151.4 29.5269 151.15 29.8969 150.89 30.2769C151.34 30.3569 151.77 30.4469 152.21 30.5169C152.21 30.5169 152.29 30.4769 152.32 30.4569C152.38 30.4069 152.43 30.3869 152.49 30.3869C152.55 30.3869 152.59 30.4069 152.64 30.4569C152.73 30.5469 152.73 30.6569 152.64 30.7569C152.6 30.8069 152.55 30.8269 152.49 30.8269C152.43 30.8269 152.37 30.8069 152.31 30.7569C152.28 30.7269 152.22 30.6969 152.18 30.6969H152.17C151.75 30.7669 151.32 30.8569 150.9 30.9369C150.88 30.9369 150.87 30.9569 150.84 30.9669C151.11 31.3569 151.38 31.7569 151.65 32.1369C151.67 32.1669 151.72 32.1669 151.76 32.1769C151.9 32.1769 152.01 32.2769 152 32.3969C152 32.5269 151.92 32.6069 151.79 32.6169H151.77C151.65 32.6169 151.57 32.5269 151.56 32.3769C151.56 32.3369 151.54 32.2769 151.51 32.2569C151.13 31.9869 150.74 31.7269 150.32 31.4369C150.28 31.6569 150.24 31.8569 150.2 32.0569C150.16 32.2869 150.11 32.5169 150.07 32.7469C150.07 32.7969 150.09 32.8669 150.12 32.9169C150.21 33.0269 150.21 33.1669 150.12 33.2469C150.07 33.2869 150.02 33.3069 149.97 33.3069C149.92 33.3069 149.87 33.2869 149.83 33.2469C149.73 33.1569 149.73 33.0369 149.83 32.9169C149.86 32.8769 149.9 32.8069 149.89 32.7669C149.82 32.3469 149.74 31.9369 149.65 31.4969C149.27 31.7569 148.9 32.0069 148.53 32.2669C148.51 32.2869 148.5 32.3369 148.5 32.3769C148.5 32.5169 148.41 32.6069 148.28 32.6069H148.27C148.14 32.6069 148.07 32.5169 148.06 32.3969C148.06 32.2669 148.16 32.1869 148.3 32.1769C148.34 32.1769 148.39 32.1669 148.41 32.1369C148.68 31.7469 148.94 31.3669 149.22 30.9669C148.74 30.8769 148.28 30.7869 147.81 30.7069H147.8C147.8 30.7069 147.71 30.7369 147.68 30.7669C147.62 30.8169 147.56 30.8369 147.5 30.8369C147.44 30.8369 147.39 30.8169 147.35 30.7669C147.27 30.6769 147.27 30.5769 147.35 30.4769C147.39 30.4269 147.45 30.3969 147.5 30.3969C147.55 30.3969 147.62 30.4169 147.67 30.4669C147.71 30.4969 147.77 30.5269 147.82 30.5269C147.82 30.5269 147.83 30.5269 147.84 30.5269C148.27 30.4569 148.71 30.3669 149.16 30.2869C149.12 30.2269 149.1 30.1769 149.07 30.1369C148.88 29.8669 148.7 29.5869 148.51 29.3169C148.44 29.2169 148.4 29.1169 148.24 29.1169H148.2C148.09 29.1169 148.03 29.0069 148.04 28.8869C148.05 28.7669 148.13 28.6869 148.25 28.6869C148.37 28.6869 148.47 28.7569 148.46 28.8769C148.46 29.0169 148.53 29.0669 148.62 29.1269C148.95 29.3469 149.27 29.5769 149.62 29.8069C149.7 29.4169 149.77 29.0469 149.84 28.6669C149.87 28.5169 149.92 28.3869 149.78 28.2369C149.67 28.1169 149.78 27.9969 149.91 27.9169H150.04M150.04 27.5669H149.91C149.84 27.5669 149.78 27.5869 149.73 27.6169C149.53 27.7369 149.41 27.8969 149.39 28.0669C149.37 28.2169 149.41 28.3569 149.52 28.4669C149.52 28.4869 149.52 28.5169 149.51 28.5369V28.5969C149.46 28.7969 149.42 28.9969 149.38 29.2069C149.19 29.0769 149.01 28.9569 148.82 28.8269C148.82 28.7069 148.76 28.5969 148.68 28.5069C148.58 28.3969 148.42 28.3269 148.25 28.3269C147.95 28.3269 147.72 28.5469 147.69 28.8469C147.67 29.0169 147.73 29.1769 147.83 29.2969C147.92 29.3969 148.04 29.4569 148.18 29.4569C148.18 29.4669 148.2 29.4869 148.21 29.4969C148.33 29.6669 148.45 29.8469 148.57 30.0169C148.32 30.0669 148.09 30.1069 147.85 30.1469C147.74 30.0669 147.62 30.0269 147.49 30.0269C147.32 30.0269 147.17 30.0969 147.06 30.2369C146.88 30.4669 146.88 30.7569 147.07 30.9769C147.18 31.0969 147.32 31.1669 147.48 31.1669C147.6 31.1669 147.73 31.1269 147.83 31.0469C148.09 31.0969 148.34 31.1369 148.6 31.1969C148.46 31.4069 148.31 31.6169 148.17 31.8169C147.87 31.8769 147.67 32.1069 147.68 32.3969C147.69 32.7169 147.91 32.9369 148.23 32.9469H148.26C148.55 32.9469 148.77 32.7469 148.82 32.4569C149.01 32.3269 149.19 32.1969 149.38 32.0669C149.42 32.2869 149.46 32.5069 149.5 32.7169C149.32 32.9869 149.35 33.2969 149.59 33.4969C149.7 33.5869 149.83 33.6369 149.96 33.6369C150.09 33.6369 150.22 33.5869 150.33 33.4969C150.56 33.3069 150.59 32.9869 150.41 32.7169C150.43 32.5569 150.47 32.3969 150.5 32.2269L150.52 32.1069C150.52 32.1069 150.53 32.0469 150.54 32.0169C150.76 32.1669 150.98 32.3169 151.19 32.4669C151.24 32.7569 151.47 32.9569 151.75 32.9569H151.79C152.1 32.9369 152.32 32.7169 152.33 32.4069C152.34 32.1169 152.14 31.8769 151.84 31.8269C151.69 31.6169 151.54 31.3969 151.4 31.1869C151.64 31.1469 151.87 31.0969 152.11 31.0569C152.22 31.1269 152.34 31.1769 152.46 31.1769C152.62 31.1769 152.77 31.1069 152.87 30.9869C153.08 30.7469 153.07 30.4269 152.85 30.2069C152.71 30.0669 152.55 30.0369 152.45 30.0369C152.36 30.0369 152.24 30.0569 152.11 30.1569C151.89 30.1169 151.67 30.0769 151.45 30.0369C151.58 29.8369 151.72 29.6469 151.85 29.4569C152.16 29.3969 152.37 29.1369 152.34 28.8369C152.31 28.5369 152.1 28.3369 151.8 28.3169H151.76C151.47 28.3169 151.25 28.5069 151.2 28.8069C150.99 28.9569 150.78 29.0969 150.56 29.2469C150.51 28.9769 150.46 28.7169 150.41 28.4569C150.61 28.1569 150.57 27.9169 150.28 27.6469C150.21 27.5869 150.13 27.5469 150.04 27.5469V27.5669Z" fill="#B1C553"/>
<path d="M113.662 104.011H115.351L104.405 88.7834H102.581L113.662 104.011ZM114.743 87H117.784L111.095 95.0253L119 106H112.851L107.986 99.3466L102.446 106H99.4054L106.568 97.426L99 87H105.351L109.676 93.0361L114.743 87Z" fill="white"/>
</g>
<defs>
<linearGradient id="paint0_linear_4250_1088" x1="10" y1="20" x2="10" y2="40" gradientUnits="userSpaceOnUse">
<stop stop-color="#EF4237"/>
<stop offset="0.13" stop-color="#DD413F"/>
<stop offset="0.39" stop-color="#AF3E54"/>
<stop offset="0.75" stop-color="#663976"/>
<stop offset="1" stop-color="#2E368F"/>
</linearGradient>
<clipPath id="clip0_4250_1088">
<rect width="200" height="108" fill="white"/>
</clipPath>
</defs>
</svg>
